<svg width="64" height="49" viewBox="0 0 64 49" fill="none" xmlns="http://www.w3.org/2000/svg">
<path fill-rule="evenodd" clip-rule="evenodd" d="M47.3639 19.656L55.7222 11.7839L51.546 9.62989C51.2585 9.47862 51.1163 9.15187 51.1998 8.8433C51.2801 8.53471 51.5676 8.31991 51.8953 8.32293L60.5819 8.0688L60.5788 0H47.3641L47.3639 19.656ZM26.8474 26.3542L33.9541 30.2268H33.9572C34.7733 30.6866 35.8026 30.5565 36.4735 29.9061L40.0624 26.5267V13.1394H26.8477L26.8474 26.3542ZM6.3309 34.3053L19.5456 26.551V24.8416H6.3309V34.3053ZM47.3639 30.1182L60.5787 17.6564L60.5818 48.9998H47.367L47.3639 30.1182ZM26.8474 34.9982V48.9997H40.0621V37.0011L38.464 38.5107C37.3419 39.5817 35.6325 39.7966 34.2692 39.0402L26.8442 34.9921L26.8474 34.9982ZM6.3309 43.1065V49H19.5456V35.3525L6.3309 43.1037V43.1065ZM5.20568 42.1474L3.53949 43.1246C2.5287 43.7146 1.22108 43.3939 0.612133 42.4076L0.299923 41.8993C-0.299769 40.91 0.027896 39.6302 1.03254 39.0343L5.93827 36.1571H5.94136C5.97536 36.142 6.00628 36.1208 6.03718 36.0997L20.5719 27.5677C20.6059 27.5526 20.6399 27.5344 20.6708 27.5132L22.2071 26.6116C22.8563 26.2123 23.6786 26.2002 24.3431 26.5784L25.7404 27.3408V27.3377C25.7713 27.3589 25.8084 27.3801 25.8424 27.3952L33.2674 31.4402C34.6307 32.1966 36.3401 31.9818 37.4591 30.9108L41.2304 27.359C41.2582 27.3378 41.2829 27.3136 41.3046 27.2894L47.1098 21.8225C47.1376 21.8013 47.1624 21.7801 47.184 21.7529L57.3972 12.132C57.5672 11.9837 57.6506 11.7599 57.6259 11.539C57.5981 11.3151 57.4652 11.1185 57.2642 11.0065C56.3925 10.5315 55.4744 10.0838 54.5873 9.62699L61.2519 9.43033H61.2921V9.43336C61.3168 9.43336 61.3447 9.43033 61.3694 9.42731L64 9.34865L63.1561 18.044L61.9691 15.7265C61.8794 15.5208 61.6909 15.3695 61.4683 15.3242C61.2457 15.2758 61.0108 15.3363 60.8408 15.4875C60.813 15.5087 60.7851 15.5329 60.7604 15.5601L46.2012 29.2898C46.1734 29.311 46.1517 29.3352 46.127 29.3594L40.3217 34.8324C40.297 34.8535 40.2723 34.8777 40.2475 34.9019L37.4778 37.5098C36.807 38.1603 35.7777 38.2904 34.9585 37.8275L26.5322 33.2319V33.2349C26.4982 33.2138 26.4642 33.1926 26.4271 33.1775L25.1473 32.4816C24.0407 31.8614 22.6775 31.8826 21.5924 32.5361L19.9418 33.5042C19.9078 33.5224 19.8738 33.5405 19.8428 33.5617L5.30497 42.0905C5.27097 42.1057 5.24006 42.1268 5.20915 42.148L5.20568 42.1474Z" fill="white"/>
</svg>
