<svg width="704" height="226" viewBox="0 0 704 226" fill="none" xmlns="http://www.w3.org/2000/svg">
<g clip-path="url(#clip0_857_1580)">
<path d="M615.7 185.5H265C253.954 185.5 245 194.454 245 205.5V206C245 217.046 253.954 226 265 226H615.7C626.746 226 635.7 217.046 635.7 206V205.5C635.7 194.454 626.746 185.5 615.7 185.5Z" fill="#26B5EA"/>
<path d="M433.78 27.8501C409.359 27.8501 389.485 47.7701 389.485 72.2701C389.485 96.7701 409.359 116.7 433.78 116.7C458.2 116.7 478.074 96.7701 478.074 72.2701C478.074 47.7701 458.2 27.8501 433.78 27.8501ZM433.78 106.82C414.784 106.82 399.327 91.3201 399.327 72.2701C399.327 53.2201 414.784 37.7201 433.78 37.7201C452.776 37.7201 468.232 53.2201 468.232 72.2701C468.232 91.3201 452.776 106.82 433.78 106.82Z" fill="#26B5EA"/>
<path d="M330.104 27.8501C305.683 27.8501 285.8 47.7801 285.8 72.2701V111.76C285.8 114.49 288.004 116.69 290.726 116.69C293.448 116.69 295.652 114.48 295.652 111.76V72.2701C295.652 53.2201 311.108 37.7201 330.104 37.7201C349.1 37.7201 364.556 53.2201 364.556 72.2701V111.76C364.556 114.49 366.76 116.69 369.482 116.69C372.205 116.69 374.398 114.48 374.398 111.76V72.2701C374.398 47.7701 354.525 27.8501 330.104 27.8501Z" fill="#26B5EA"/>
<path d="M669.142 67.3401H629.763C621.627 67.3401 614.995 60.7001 614.995 52.5301C614.995 44.3601 621.617 37.7201 629.763 37.7201H680.948C683.671 37.7201 685.864 35.5101 685.864 32.7801C685.864 30.0501 683.661 27.8501 680.948 27.8501H629.763C616.192 27.8501 605.153 38.9201 605.153 52.5301C605.153 66.1401 616.192 77.2101 629.763 77.2101H669.142C677.289 77.2101 683.91 83.8501 683.91 92.0201C683.91 100.19 677.289 106.82 669.142 106.82H617.957C615.235 106.82 613.031 109.04 613.031 111.76C613.031 114.48 615.235 116.7 617.957 116.7H669.142C682.713 116.7 693.752 105.63 693.752 92.0201C693.752 78.4101 682.713 67.3401 669.142 67.3401Z" fill="#26B5EA"/>
<path d="M554.776 27.8501H492.612C489.89 27.8501 487.696 30.0601 487.696 32.7801C487.696 35.5001 489.9 37.7201 492.612 37.7201H518.778V111.76C518.778 114.49 520.982 116.69 523.704 116.69C526.426 116.69 528.62 114.48 528.62 111.76V37.7201H554.776C557.498 37.7201 559.702 35.5001 559.702 32.7801C559.702 30.0601 557.498 27.8501 554.776 27.8501Z" fill="#26B5EA"/>
<path d="M582.428 27.8501C579.705 27.8501 577.512 30.0601 577.512 32.7801V111.76C577.512 114.49 579.715 116.69 582.428 116.69C585.14 116.69 587.354 114.48 587.354 111.76V32.7801C587.354 30.0501 585.15 27.8501 582.428 27.8501Z" fill="#26B5EA"/>
<path d="M265.806 77.8601H240.408C237.686 77.8601 235.482 80.0601 235.482 82.7901C235.482 85.5201 237.686 87.7301 240.408 87.7301H258.647C252.873 99.2301 240.997 106.82 227.854 106.82C208.858 106.82 193.402 91.3201 193.402 72.2701C193.402 53.2201 208.858 37.7201 227.854 37.7201C234.236 37.7201 240.478 39.5001 245.913 42.8801C248.216 44.3201 251.258 43.6101 252.694 41.3001C254.13 38.9901 253.412 35.9401 251.108 34.5001C244.118 30.1501 236.081 27.8501 227.854 27.8501C203.423 27.8501 183.55 47.7801 183.55 72.2701C183.55 96.7601 203.423 116.69 227.854 116.69C247.658 116.69 265.218 103.29 270.543 84.1201C270.962 82.6301 270.653 81.0401 269.725 79.8101C268.798 78.5801 267.342 77.8601 265.806 77.8601Z" fill="#26B5EA"/>
<mask id="mask0_857_1580" style="mask-type:luminance" maskUnits="userSpaceOnUse" x="103" y="46" width="45" height="120">
<path d="M103.169 46.4114C111.308 46.4114 117.969 53.091 117.969 61.2403V165.097C134.315 165.097 147.557 151.804 147.557 135.425V90.9116C139.91 47.8141 107.818 46.3979 103.635 46.3979C103.342 46.3979 103.182 46.3979 103.182 46.3979" fill="white"/>
</mask>
<g mask="url(#mask0_857_1580)">
<path d="M105.177 37.1914L78.6836 159.764L145.577 174.304L172.07 51.7321L105.177 37.1914Z" fill="url(#paint0_linear_857_1580)"/>
</g>
<mask id="mask1_857_1580" style="mask-type:luminance" maskUnits="userSpaceOnUse" x="-1" y="105" width="60" height="61">
<path d="M-0.378906 105.754V149.266C-0.378906 158.003 6.68157 165.097 15.3939 165.097H58.7959V114.772C58.7959 109.789 54.7728 105.754 49.8171 105.754H-0.378906Z" fill="white"/>
</mask>
<g mask="url(#mask1_857_1580)">
<path d="M32.1667 76.2046L-29.8184 132.43L26.2484 194.591L88.2335 138.365L32.1667 76.2046Z" fill="url(#paint1_radial_857_1580)"/>
</g>
<mask id="mask2_857_1580" style="mask-type:luminance" maskUnits="userSpaceOnUse" x="63" y="90" width="41" height="76">
<path d="M63.2324 90.9119C68.9208 90.9119 73.5833 95.5877 73.5833 101.305V165.097H103.171V127.998C97.8687 93.7574 74.0363 90.7783 65.9367 90.7783C64.2449 90.7783 63.2324 90.9119 63.2324 90.9119Z" fill="white"/>
</mask>
<g mask="url(#mask2_857_1580)">
<path d="M71.026 74.9028L33.8633 150.575L95.3747 180.955L132.537 105.283L71.026 74.9028Z" fill="url(#paint2_linear_857_1580)"/>
</g>
<mask id="mask3_857_1580" style="mask-type:luminance" maskUnits="userSpaceOnUse" x="63" y="90" width="41" height="76">
<path d="M63.2324 90.9119C68.9208 90.9119 73.5833 95.5877 73.5833 101.305V165.097H103.171V127.998C97.8687 93.7574 74.0363 90.7783 65.9367 90.7783C64.2449 90.7783 63.2324 90.9119 63.2324 90.9119Z" fill="white"/>
</mask>
<g mask="url(#mask3_857_1580)">
<path d="M67.9499 77.8364L39.291 156.288L98.4321 178.015L127.091 99.5638L67.9499 77.8364Z" fill="url(#paint3_radial_857_1580)"/>
</g>
<mask id="mask4_857_1580" style="mask-type:luminance" maskUnits="userSpaceOnUse" x="-1" y="61" width="105" height="67">
<path d="M-0.378906 61.2402V90.9116H58.7959C73.3298 90.9116 95.2706 90.1367 103.17 127.997V74.5062C103.17 69.4029 99.1072 61.2402 89.9419 61.2402H-0.378906Z" fill="white"/>
</mask>
<g mask="url(#mask4_857_1580)">
<path d="M56.5759 9.55518L-33.4971 91.2592L46.2154 179.636L136.288 97.9318L56.5759 9.55518Z" fill="url(#paint4_radial_857_1580)"/>
</g>
<g opacity="0.24">
<mask id="mask5_857_1580" style="mask-type:luminance" maskUnits="userSpaceOnUse" x="103" y="46" width="45" height="120">
<g opacity="0.24">
<path d="M147.542 46.4116H103.168V165.11H147.542V46.4116Z" fill="white"/>
</g>
</mask>
<g mask="url(#mask5_857_1580)">
<mask id="mask6_857_1580" style="mask-type:luminance" maskUnits="userSpaceOnUse" x="103" y="46" width="45" height="120">
<g opacity="0.24">
<path d="M103.167 46.4251C111.307 46.4251 117.967 53.1049 117.967 61.2675V165.11C134.313 165.11 147.555 151.817 147.555 135.439V90.9388C138.363 43.9002 103.18 46.4251 103.18 46.4251" fill="white"/>
</g>
</mask>
<g mask="url(#mask6_857_1580)">
<path d="M108.152 29.8628L65.0293 151.51L142.576 179.156L185.699 57.5085L108.152 29.8628Z" fill="url(#paint5_radial_857_1580)"/>
</g>
</g>
</g>
<mask id="mask7_857_1580" style="mask-type:luminance" maskUnits="userSpaceOnUse" x="-1" y="16" width="149" height="75">
<path d="M29.2085 16.7402C12.8628 16.7402 -0.378906 30.0195 -0.378906 46.4115H103.17C103.17 46.4115 138.673 44.4477 147.545 90.9119V34.4415C147.545 33.4662 147.452 32.5311 147.292 31.5959V31.5692C146.066 24.128 140.191 18.2231 132.758 16.994C132.758 16.994 132.651 16.9673 132.451 16.9539C131.612 16.8203 130.76 16.7402 129.88 16.7402H29.2085Z" fill="white"/>
</mask>
<g mask="url(#mask7_857_1580)">
<path d="M80.9969 -57.0415L-37.1826 50.12L66.1555 164.73L184.335 57.569L80.9969 -57.0415Z" fill="url(#paint6_radial_857_1580)"/>
</g>
<path d="M265.85 216.519H262.895L271.441 193.247H274.35L282.895 216.519H279.941L272.986 196.928H272.804L265.85 216.519ZM266.941 207.429H278.85V209.928H266.941V207.429ZM288.839 206.019V216.519H286.157V199.065H288.748V201.792H288.975C289.384 200.906 290.005 200.194 290.839 199.656C291.672 199.11 292.748 198.838 294.066 198.838C295.248 198.838 296.282 199.08 297.168 199.565C298.054 200.042 298.744 200.769 299.236 201.747C299.729 202.716 299.975 203.944 299.975 205.429V216.519H297.293V205.61C297.293 204.239 296.937 203.171 296.225 202.406C295.513 201.633 294.535 201.247 293.293 201.247C292.437 201.247 291.672 201.432 290.998 201.803C290.331 202.175 289.804 202.716 289.418 203.428C289.032 204.141 288.839 205.004 288.839 206.019ZM313.978 216.519V193.247H328.569V196.269H317.489V203.36H327.807V206.372H317.489V213.497H328.705V216.519H313.978ZM336.77 193.247V216.519H333.259V193.247H336.77ZM341.884 216.519V193.247H345.395V213.497H355.941V216.519H341.884ZM384.165 200.599C383.946 199.91 383.65 199.292 383.279 198.747C382.915 198.194 382.48 197.724 381.972 197.338C381.464 196.944 380.885 196.644 380.233 196.44C379.589 196.235 378.881 196.133 378.108 196.133C376.798 196.133 375.616 196.47 374.563 197.144C373.51 197.819 372.677 198.807 372.063 200.11C371.457 201.406 371.154 202.993 371.154 204.872C371.154 206.758 371.461 208.353 372.074 209.656C372.688 210.959 373.529 211.947 374.597 212.622C375.665 213.296 376.881 213.633 378.245 213.633C379.51 213.633 380.612 213.375 381.552 212.86C382.499 212.345 383.23 211.618 383.745 210.678C384.267 209.732 384.529 208.618 384.529 207.338L385.438 207.508H378.779V204.61H387.927V207.258C387.927 209.213 387.51 210.91 386.677 212.349C385.851 213.781 384.707 214.887 383.245 215.667C381.79 216.447 380.124 216.838 378.245 216.838C376.139 216.838 374.29 216.353 372.699 215.383C371.116 214.413 369.881 213.038 368.995 211.258C368.108 209.47 367.665 207.349 367.665 204.894C367.665 203.038 367.923 201.372 368.438 199.894C368.953 198.417 369.677 197.163 370.608 196.133C371.548 195.095 372.65 194.303 373.915 193.758C375.188 193.205 376.578 192.928 378.086 192.928C379.343 192.928 380.514 193.114 381.597 193.485C382.688 193.857 383.658 194.383 384.506 195.065C385.362 195.747 386.071 196.557 386.631 197.497C387.192 198.428 387.571 199.463 387.767 200.599H384.165ZM395.509 193.247V216.519H392.111V193.247H395.509ZM407.432 216.872C405.796 216.872 404.368 216.497 403.148 215.747C401.928 214.997 400.982 213.947 400.307 212.599C399.633 211.25 399.296 209.675 399.296 207.872C399.296 206.061 399.633 204.478 400.307 203.122C400.982 201.766 401.928 200.713 403.148 199.963C404.368 199.213 405.796 198.838 407.432 198.838C409.069 198.838 410.497 199.213 411.716 199.963C412.936 200.713 413.883 201.766 414.557 203.122C415.232 204.478 415.569 206.061 415.569 207.872C415.569 209.675 415.232 211.25 414.557 212.599C413.883 213.947 412.936 214.997 411.716 215.747C410.497 216.497 409.069 216.872 407.432 216.872ZM407.444 214.019C408.504 214.019 409.383 213.739 410.08 213.178C410.777 212.618 411.292 211.872 411.625 210.94C411.966 210.008 412.137 208.982 412.137 207.86C412.137 206.747 411.966 205.724 411.625 204.792C411.292 203.853 410.777 203.099 410.08 202.531C409.383 201.963 408.504 201.678 407.444 201.678C406.375 201.678 405.489 201.963 404.785 202.531C404.088 203.099 403.569 203.853 403.228 204.792C402.894 205.724 402.728 206.747 402.728 207.86C402.728 208.982 402.894 210.008 403.228 210.94C403.569 211.872 404.088 212.618 404.785 213.178C405.489 213.739 406.375 214.019 407.444 214.019ZM419.634 216.519V193.247H423.032V201.894H423.236C423.433 201.531 423.717 201.11 424.089 200.633C424.46 200.156 424.975 199.739 425.634 199.383C426.293 199.019 427.164 198.838 428.248 198.838C429.657 198.838 430.914 199.194 432.02 199.906C433.126 200.618 433.994 201.644 434.623 202.985C435.259 204.326 435.577 205.94 435.577 207.826C435.577 209.713 435.263 211.33 434.634 212.678C434.005 214.019 433.142 215.054 432.043 215.781C430.945 216.5 429.691 216.86 428.282 216.86C427.221 216.86 426.354 216.682 425.679 216.326C425.013 215.97 424.49 215.554 424.111 215.076C423.732 214.599 423.441 214.175 423.236 213.803H422.952V216.519H419.634ZM422.964 207.792C422.964 209.019 423.142 210.095 423.498 211.019C423.854 211.944 424.369 212.667 425.043 213.19C425.717 213.705 426.543 213.963 427.52 213.963C428.535 213.963 429.384 213.694 430.066 213.156C430.748 212.61 431.263 211.872 431.611 210.94C431.967 210.008 432.145 208.959 432.145 207.792C432.145 206.641 431.971 205.607 431.623 204.69C431.282 203.773 430.767 203.05 430.077 202.519C429.395 201.989 428.543 201.724 427.52 201.724C426.535 201.724 425.702 201.978 425.02 202.485C424.346 202.993 423.835 203.701 423.486 204.61C423.138 205.519 422.964 206.58 422.964 207.792ZM444.472 216.906C443.366 216.906 442.366 216.701 441.472 216.292C440.578 215.875 439.87 215.273 439.347 214.485C438.832 213.697 438.574 212.732 438.574 211.588C438.574 210.603 438.764 209.792 439.142 209.156C439.521 208.519 440.033 208.016 440.677 207.644C441.321 207.273 442.04 206.993 442.836 206.804C443.631 206.614 444.442 206.47 445.267 206.372C446.313 206.25 447.161 206.152 447.813 206.076C448.464 205.993 448.938 205.86 449.233 205.679C449.529 205.497 449.677 205.201 449.677 204.792V204.713C449.677 203.72 449.396 202.951 448.836 202.406C448.283 201.86 447.457 201.588 446.358 201.588C445.214 201.588 444.313 201.841 443.654 202.349C443.002 202.849 442.552 203.406 442.302 204.019L439.108 203.292C439.487 202.232 440.04 201.375 440.767 200.724C441.502 200.065 442.347 199.588 443.302 199.292C444.256 198.989 445.26 198.838 446.313 198.838C447.01 198.838 447.749 198.921 448.529 199.088C449.317 199.247 450.052 199.542 450.733 199.974C451.423 200.406 451.987 201.023 452.427 201.826C452.866 202.622 453.086 203.656 453.086 204.929V216.519H449.767V214.133H449.631C449.411 214.572 449.082 215.004 448.642 215.429C448.203 215.853 447.639 216.205 446.949 216.485C446.26 216.766 445.434 216.906 444.472 216.906ZM445.211 214.178C446.15 214.178 446.953 213.993 447.62 213.622C448.294 213.25 448.805 212.766 449.154 212.167C449.51 211.561 449.688 210.913 449.688 210.224V207.974C449.567 208.095 449.332 208.209 448.983 208.315C448.642 208.413 448.252 208.5 447.813 208.576C447.374 208.644 446.946 208.709 446.529 208.769C446.112 208.822 445.764 208.868 445.483 208.906C444.824 208.989 444.222 209.129 443.677 209.326C443.139 209.523 442.707 209.807 442.381 210.178C442.063 210.542 441.904 211.027 441.904 211.633C441.904 212.474 442.214 213.11 442.836 213.542C443.457 213.966 444.249 214.178 445.211 214.178ZM461.009 193.247V216.519H457.611V193.247H461.009ZM493.841 200.519H491.023C490.857 199.709 490.565 198.997 490.148 198.383C489.739 197.769 489.239 197.254 488.648 196.838C488.065 196.413 487.417 196.095 486.705 195.883C485.993 195.671 485.25 195.565 484.478 195.565C483.069 195.565 481.792 195.921 480.648 196.633C479.512 197.345 478.607 198.394 477.932 199.781C477.266 201.167 476.932 202.868 476.932 204.883C476.932 206.898 477.266 208.599 477.932 209.985C478.607 211.372 479.512 212.421 480.648 213.133C481.792 213.845 483.069 214.201 484.478 214.201C485.25 214.201 485.993 214.095 486.705 213.883C487.417 213.671 488.065 213.357 488.648 212.94C489.239 212.516 489.739 211.997 490.148 211.383C490.565 210.762 490.857 210.05 491.023 209.247H493.841C493.629 210.436 493.243 211.5 492.682 212.44C492.122 213.379 491.425 214.178 490.591 214.838C489.758 215.489 488.822 215.985 487.785 216.326C486.754 216.667 485.652 216.838 484.478 216.838C482.493 216.838 480.728 216.353 479.182 215.383C477.637 214.413 476.421 213.035 475.535 211.247C474.648 209.459 474.205 207.338 474.205 204.883C474.205 202.428 474.648 200.307 475.535 198.519C476.421 196.732 477.637 195.353 479.182 194.383C480.728 193.413 482.493 192.928 484.478 192.928C485.652 192.928 486.754 193.099 487.785 193.44C488.822 193.781 489.758 194.281 490.591 194.94C491.425 195.591 492.122 196.387 492.682 197.326C493.243 198.258 493.629 199.322 493.841 200.519ZM505.123 216.883C503.547 216.883 502.164 216.508 500.975 215.758C499.793 215.008 498.869 213.959 498.202 212.61C497.543 211.262 497.214 209.686 497.214 207.883C497.214 206.065 497.543 204.478 498.202 203.122C498.869 201.766 499.793 200.713 500.975 199.963C502.164 199.213 503.547 198.838 505.123 198.838C506.698 198.838 508.077 199.213 509.259 199.963C510.448 200.713 511.373 201.766 512.032 203.122C512.698 204.478 513.032 206.065 513.032 207.883C513.032 209.686 512.698 211.262 512.032 212.61C511.373 213.959 510.448 215.008 509.259 215.758C508.077 216.508 506.698 216.883 505.123 216.883ZM505.123 214.474C506.32 214.474 507.304 214.167 508.077 213.553C508.85 212.94 509.422 212.133 509.793 211.133C510.164 210.133 510.35 209.05 510.35 207.883C510.35 206.716 510.164 205.629 509.793 204.622C509.422 203.614 508.85 202.8 508.077 202.178C507.304 201.557 506.32 201.247 505.123 201.247C503.926 201.247 502.941 201.557 502.168 202.178C501.395 202.8 500.823 203.614 500.452 204.622C500.081 205.629 499.895 206.716 499.895 207.883C499.895 209.05 500.081 210.133 500.452 211.133C500.823 212.133 501.395 212.94 502.168 213.553C502.941 214.167 503.926 214.474 505.123 214.474ZM517.125 216.519V199.065H519.716V201.792H519.944C520.307 200.86 520.894 200.137 521.705 199.622C522.516 199.099 523.489 198.838 524.625 198.838C525.777 198.838 526.735 199.099 527.5 199.622C528.273 200.137 528.875 200.86 529.307 201.792H529.489C529.936 200.891 530.607 200.175 531.5 199.644C532.394 199.107 533.466 198.838 534.716 198.838C536.277 198.838 537.553 199.326 538.546 200.303C539.538 201.273 540.035 202.785 540.035 204.838V216.519H537.353V204.838C537.353 203.55 537 202.629 536.296 202.076C535.591 201.523 534.762 201.247 533.807 201.247C532.58 201.247 531.629 201.618 530.955 202.36C530.281 203.095 529.944 204.027 529.944 205.156V216.519H527.216V204.565C527.216 203.572 526.894 202.773 526.25 202.167C525.607 201.553 524.777 201.247 523.762 201.247C523.065 201.247 522.413 201.432 521.807 201.803C521.209 202.175 520.724 202.69 520.353 203.349C519.989 204 519.807 204.754 519.807 205.61V216.519H517.125ZM544.938 223.065V199.065H547.529V201.838H547.847C548.044 201.535 548.317 201.148 548.665 200.678C549.021 200.201 549.529 199.777 550.188 199.406C550.855 199.027 551.756 198.838 552.892 198.838C554.362 198.838 555.658 199.205 556.779 199.94C557.9 200.675 558.775 201.716 559.404 203.065C560.033 204.413 560.347 206.004 560.347 207.838C560.347 209.686 560.033 211.288 559.404 212.644C558.775 213.993 557.904 215.038 556.79 215.781C555.677 216.516 554.392 216.883 552.938 216.883C551.817 216.883 550.919 216.697 550.245 216.326C549.571 215.947 549.052 215.519 548.688 215.042C548.324 214.557 548.044 214.156 547.847 213.838H547.62V223.065H544.938ZM547.574 207.792C547.574 209.11 547.767 210.273 548.154 211.281C548.54 212.281 549.105 213.065 549.847 213.633C550.589 214.194 551.499 214.474 552.574 214.474C553.696 214.474 554.631 214.179 555.381 213.588C556.139 212.989 556.707 212.186 557.086 211.178C557.472 210.163 557.665 209.035 557.665 207.792C557.665 206.565 557.476 205.459 557.097 204.474C556.726 203.482 556.161 202.697 555.404 202.122C554.654 201.538 553.711 201.247 552.574 201.247C551.483 201.247 550.567 201.523 549.824 202.076C549.082 202.622 548.521 203.387 548.142 204.372C547.764 205.349 547.574 206.489 547.574 207.792ZM569.574 216.929C568.468 216.929 567.464 216.72 566.563 216.304C565.661 215.879 564.946 215.269 564.415 214.474C563.885 213.671 563.62 212.701 563.62 211.565C563.62 210.565 563.817 209.754 564.211 209.133C564.605 208.504 565.131 208.012 565.79 207.656C566.449 207.3 567.177 207.035 567.972 206.86C568.775 206.679 569.582 206.535 570.392 206.429C571.453 206.292 572.313 206.19 572.972 206.122C573.639 206.046 574.124 205.921 574.427 205.747C574.737 205.572 574.892 205.269 574.892 204.838V204.747C574.892 203.625 574.586 202.754 573.972 202.133C573.366 201.512 572.446 201.201 571.211 201.201C569.93 201.201 568.927 201.482 568.199 202.042C567.472 202.603 566.961 203.201 566.665 203.838L564.12 202.928C564.574 201.868 565.18 201.042 565.938 200.451C566.703 199.853 567.536 199.436 568.438 199.201C569.347 198.959 570.241 198.838 571.12 198.838C571.68 198.838 572.324 198.906 573.052 199.042C573.786 199.171 574.495 199.44 575.177 199.849C575.866 200.258 576.438 200.875 576.892 201.701C577.347 202.527 577.574 203.633 577.574 205.019V216.519H574.892V214.156H574.756C574.574 214.535 574.271 214.94 573.847 215.372C573.423 215.804 572.858 216.171 572.154 216.474C571.449 216.777 570.589 216.929 569.574 216.929ZM569.983 214.519C571.044 214.519 571.938 214.311 572.665 213.894C573.4 213.478 573.953 212.94 574.324 212.281C574.703 211.622 574.892 210.928 574.892 210.201V207.747C574.779 207.883 574.529 208.008 574.142 208.122C573.764 208.228 573.324 208.322 572.824 208.406C572.332 208.482 571.851 208.55 571.381 208.61C570.919 208.663 570.544 208.709 570.256 208.747C569.559 208.838 568.908 208.985 568.302 209.19C567.703 209.387 567.218 209.686 566.847 210.088C566.483 210.482 566.302 211.019 566.302 211.701C566.302 212.633 566.646 213.338 567.336 213.815C568.033 214.285 568.915 214.519 569.983 214.519ZM585.151 206.019V216.519H582.469V199.065H585.06V201.792H585.287C585.696 200.906 586.318 200.194 587.151 199.656C587.984 199.11 589.06 198.838 590.378 198.838C591.56 198.838 592.594 199.08 593.481 199.565C594.367 200.042 595.056 200.769 595.549 201.747C596.041 202.716 596.287 203.944 596.287 205.429V216.519H593.606V205.61C593.606 204.239 593.249 203.171 592.537 202.406C591.825 201.633 590.848 201.247 589.606 201.247C588.749 201.247 587.984 201.432 587.31 201.803C586.643 202.175 586.117 202.716 585.731 203.428C585.344 204.141 585.151 205.004 585.151 206.019ZM602.29 223.065C601.836 223.065 601.43 223.027 601.074 222.951C600.718 222.883 600.472 222.815 600.336 222.747L601.017 220.383C601.669 220.55 602.245 220.61 602.745 220.565C603.245 220.519 603.688 220.296 604.074 219.894C604.468 219.5 604.828 218.86 605.154 217.974L605.654 216.61L599.199 199.065H602.108L606.927 212.974H607.108L611.927 199.065H614.836L607.427 219.065C607.093 219.966 606.68 220.713 606.188 221.304C605.696 221.902 605.124 222.345 604.472 222.633C603.828 222.921 603.101 223.065 602.29 223.065Z" fill="#1B1B1B"/>
<path d="M200.733 142.119H217.043V145.279H210.451V166.687H207.155V145.279H200.733V142.119ZM224.37 167.026C222.762 167.026 221.38 166.709 220.225 166.075C219.069 165.418 218.175 164.534 217.54 163.424C216.929 162.292 216.623 161.001 216.623 159.551C216.623 158.169 216.974 156.912 217.676 155.779C218.379 154.646 219.319 153.74 220.497 153.061C221.675 152.381 222.988 152.041 224.438 152.041C226.296 152.041 227.836 152.585 229.059 153.672C230.283 154.76 231.11 156.255 231.54 158.158L219.953 162.235L219.205 160.366L228.72 156.9L228.04 157.342C227.768 156.595 227.315 155.949 226.681 155.405C226.047 154.839 225.22 154.556 224.2 154.556C223.34 154.556 222.569 154.771 221.89 155.201C221.21 155.609 220.678 156.176 220.293 156.9C219.908 157.625 219.715 158.452 219.715 159.381C219.715 160.355 219.919 161.216 220.327 161.963C220.734 162.688 221.289 163.266 221.992 163.696C222.717 164.104 223.532 164.308 224.438 164.308C225.05 164.308 225.639 164.195 226.205 163.968C226.794 163.742 227.338 163.447 227.836 163.085L229.297 165.429C228.595 165.905 227.802 166.29 226.919 166.585C226.058 166.879 225.208 167.026 224.37 167.026ZM246.917 165.395C246.282 165.894 245.524 166.29 244.64 166.585C243.757 166.879 242.873 167.026 241.99 167.026C240.449 167.026 239.101 166.721 237.946 166.109C236.791 165.497 235.885 164.648 235.228 163.56C234.594 162.45 234.276 161.148 234.276 159.653C234.276 158.158 234.616 156.855 235.296 155.745C235.998 154.635 236.904 153.786 238.014 153.197C239.147 152.585 240.359 152.279 241.65 152.279C242.783 152.279 243.791 152.438 244.674 152.755C245.58 153.072 246.35 153.502 246.985 154.046L245.422 156.085C245.014 155.768 244.516 155.485 243.927 155.235C243.338 154.986 242.669 154.862 241.922 154.862C241.106 154.862 240.347 155.077 239.645 155.507C238.966 155.915 238.422 156.481 238.014 157.206C237.629 157.931 237.436 158.747 237.436 159.653C237.436 160.514 237.64 161.318 238.048 162.065C238.456 162.79 239.022 163.368 239.747 163.798C240.472 164.206 241.299 164.41 242.228 164.41C242.839 164.41 243.394 164.319 243.893 164.138C244.414 163.957 244.878 163.708 245.286 163.391L246.917 165.395ZM250.996 166.687V140.386H254.088V155.881L254.02 155.303C254.496 154.375 255.221 153.604 256.195 152.993C257.192 152.381 258.358 152.075 259.695 152.075C261.031 152.075 262.119 152.472 262.957 153.265C263.818 154.035 264.26 155.043 264.282 156.289V166.687H261.088V157.41C261.065 156.64 260.839 156.017 260.409 155.541C260.001 155.043 259.355 154.794 258.472 154.794C257.656 154.794 256.92 155.032 256.263 155.507C255.606 155.96 255.085 156.583 254.7 157.376C254.337 158.169 254.156 159.075 254.156 160.094V166.687H250.996ZM272.598 152.619L272.87 156.051L272.734 155.507C273.187 154.465 273.923 153.638 274.943 153.027C275.962 152.392 277.14 152.075 278.477 152.075C279.813 152.075 280.9 152.472 281.739 153.265C282.599 154.035 283.041 155.043 283.064 156.289V166.687H279.87V157.41C279.847 156.64 279.621 156.017 279.19 155.541C278.782 155.043 278.137 154.794 277.253 154.794C276.438 154.794 275.702 155.02 275.045 155.473C274.388 155.926 273.867 156.549 273.482 157.342C273.119 158.135 272.938 159.052 272.938 160.094V166.687H269.778V152.619H272.598ZM287.336 159.517C287.336 158.112 287.665 156.844 288.322 155.711C289.001 154.578 289.93 153.684 291.108 153.027C292.286 152.37 293.622 152.041 295.118 152.041C296.658 152.041 298.006 152.37 299.161 153.027C300.316 153.684 301.211 154.578 301.846 155.711C302.48 156.844 302.797 158.112 302.797 159.517C302.797 160.921 302.48 162.201 301.846 163.357C301.211 164.489 300.305 165.384 299.127 166.041C297.972 166.698 296.624 167.026 295.084 167.026C293.588 167.026 292.252 166.721 291.074 166.109C289.919 165.475 289.001 164.602 288.322 163.492C287.665 162.36 287.336 161.035 287.336 159.517ZM290.496 159.551C290.496 160.457 290.7 161.284 291.108 162.031C291.516 162.756 292.059 163.334 292.739 163.764C293.441 164.195 294.211 164.41 295.05 164.41C295.933 164.41 296.715 164.195 297.394 163.764C298.096 163.334 298.64 162.756 299.025 162.031C299.41 161.284 299.603 160.457 299.603 159.551C299.603 158.645 299.41 157.829 299.025 157.104C298.64 156.357 298.096 155.768 297.394 155.337C296.715 154.884 295.933 154.658 295.05 154.658C294.189 154.658 293.407 154.884 292.705 155.337C292.025 155.79 291.482 156.391 291.074 157.138C290.689 157.863 290.496 158.667 290.496 159.551ZM307.076 140.386H310.236V166.687H307.076V140.386ZM314.48 159.517C314.48 158.112 314.809 156.844 315.465 155.711C316.145 154.578 317.074 153.684 318.252 153.027C319.43 152.37 320.766 152.041 322.261 152.041C323.802 152.041 325.15 152.37 326.305 153.027C327.46 153.684 328.355 154.578 328.989 155.711C329.624 156.844 329.941 158.112 329.941 159.517C329.941 160.921 329.624 162.201 328.989 163.357C328.355 164.489 327.449 165.384 326.271 166.041C325.116 166.698 323.768 167.026 322.227 167.026C320.732 167.026 319.396 166.721 318.218 166.109C317.063 165.475 316.145 164.602 315.465 163.492C314.809 162.36 314.48 161.035 314.48 159.517ZM317.64 159.551C317.64 160.457 317.844 161.284 318.252 162.031C318.66 162.756 319.203 163.334 319.883 163.764C320.585 164.195 321.355 164.41 322.193 164.41C323.077 164.41 323.858 164.195 324.538 163.764C325.24 163.334 325.784 162.756 326.169 162.031C326.554 161.284 326.747 160.457 326.747 159.551C326.747 158.645 326.554 157.829 326.169 157.104C325.784 156.357 325.24 155.768 324.538 155.337C323.858 154.884 323.077 154.658 322.193 154.658C321.333 154.658 320.551 154.884 319.849 155.337C319.169 155.79 318.626 156.391 318.218 157.138C317.833 157.863 317.64 158.667 317.64 159.551ZM340.981 173.652C339.939 173.652 339.022 173.528 338.229 173.279C337.436 173.052 336.711 172.724 336.054 172.293C335.42 171.863 334.809 171.376 334.22 170.832L336.054 168.691C336.802 169.394 337.561 169.937 338.331 170.322C339.101 170.707 339.962 170.9 340.914 170.9C341.978 170.9 342.873 170.719 343.598 170.356C344.345 170.017 344.912 169.529 345.297 168.895C345.682 168.284 345.875 167.57 345.875 166.754L345.909 162.949L346.18 163.56C345.773 164.534 345.036 165.361 343.972 166.041C342.907 166.698 341.616 167.026 340.098 167.026C338.807 167.026 337.618 166.698 336.53 166.041C335.465 165.384 334.605 164.501 333.948 163.391C333.313 162.258 332.996 160.989 332.996 159.585C332.996 158.112 333.336 156.821 334.016 155.711C334.695 154.578 335.59 153.684 336.7 153.027C337.81 152.37 339.022 152.041 340.336 152.041C341.582 152.041 342.714 152.302 343.734 152.823C344.776 153.321 345.535 153.967 346.01 154.76L345.841 155.337L346.18 152.619H349.069V166.788C349.069 168.057 348.74 169.212 348.083 170.254C347.426 171.296 346.498 172.123 345.297 172.735C344.096 173.347 342.658 173.652 340.981 173.652ZM336.156 159.517C336.156 160.423 336.372 161.25 336.802 161.997C337.232 162.745 337.81 163.334 338.535 163.764C339.283 164.195 340.109 164.41 341.015 164.41C341.854 164.41 342.601 164.263 343.258 163.968C343.938 163.651 344.504 163.232 344.957 162.711C345.41 162.167 345.727 161.544 345.909 160.842V158.056C345.705 157.376 345.365 156.787 344.889 156.289C344.413 155.768 343.847 155.371 343.19 155.099C342.533 154.805 341.808 154.658 341.015 154.658C340.109 154.658 339.283 154.862 338.535 155.269C337.81 155.677 337.232 156.255 336.802 157.002C336.372 157.727 336.156 158.565 336.156 159.517ZM355.717 173.448L364.993 152.619H367.916L358.843 173.448H355.717ZM359.183 166.788L352.421 152.619H355.989L361.663 165.191L359.183 166.788ZM369.076 164.24C369.076 163.538 369.325 162.949 369.823 162.473C370.344 161.997 370.911 161.759 371.522 161.759C372.089 161.759 372.621 161.997 373.119 162.473C373.64 162.949 373.901 163.538 373.901 164.24C373.901 164.988 373.64 165.588 373.119 166.041C372.621 166.471 372.089 166.687 371.522 166.687C370.911 166.687 370.344 166.471 369.823 166.041C369.325 165.588 369.076 164.988 369.076 164.24ZM401.4 146.503C400.562 146.072 399.644 145.698 398.647 145.381C397.651 145.064 396.677 144.906 395.725 144.906C394.411 144.906 393.358 145.211 392.565 145.823C391.795 146.435 391.41 147.25 391.41 148.27C391.41 149.04 391.659 149.697 392.157 150.24C392.656 150.761 393.313 151.214 394.128 151.6C394.944 151.985 395.793 152.347 396.677 152.687C397.447 152.981 398.206 153.31 398.953 153.672C399.701 154.035 400.369 154.488 400.958 155.032C401.57 155.575 402.045 156.243 402.385 157.036C402.748 157.829 402.929 158.815 402.929 159.993C402.929 161.284 402.6 162.462 401.943 163.526C401.309 164.591 400.392 165.429 399.191 166.041C397.991 166.653 396.563 166.958 394.91 166.958C393.822 166.958 392.78 166.834 391.784 166.585C390.81 166.335 389.903 166.018 389.065 165.633C388.227 165.225 387.48 164.806 386.823 164.376L388.284 161.793C388.827 162.179 389.45 162.552 390.153 162.915C390.855 163.255 391.591 163.538 392.361 163.764C393.131 163.968 393.879 164.07 394.604 164.07C395.374 164.07 396.133 163.934 396.881 163.662C397.651 163.368 398.285 162.926 398.783 162.337C399.282 161.748 399.531 160.967 399.531 159.993C399.531 159.154 399.304 158.463 398.851 157.92C398.421 157.353 397.843 156.878 397.118 156.493C396.393 156.085 395.623 155.722 394.808 155.405C394.038 155.111 393.256 154.794 392.463 154.454C391.67 154.091 390.934 153.661 390.255 153.163C389.575 152.642 389.031 152.007 388.623 151.26C388.216 150.512 388.012 149.606 388.012 148.541C388.012 147.25 388.318 146.129 388.929 145.177C389.564 144.203 390.424 143.444 391.512 142.901C392.599 142.335 393.845 142.029 395.25 141.983C396.835 141.983 398.228 142.176 399.429 142.561C400.652 142.946 401.728 143.422 402.657 143.988L401.4 146.503ZM414.211 167.026C412.603 167.026 411.221 166.709 410.066 166.075C408.91 165.418 408.016 164.534 407.381 163.424C406.77 162.292 406.464 161.001 406.464 159.551C406.464 158.169 406.815 156.912 407.517 155.779C408.219 154.646 409.16 153.74 410.338 153.061C411.515 152.381 412.829 152.041 414.279 152.041C416.137 152.041 417.677 152.585 418.9 153.672C420.124 154.76 420.95 156.255 421.381 158.158L409.794 162.235L409.046 160.366L418.561 156.9L417.881 157.342C417.609 156.595 417.156 155.949 416.522 155.405C415.888 154.839 415.061 154.556 414.041 154.556C413.18 154.556 412.41 154.771 411.731 155.201C411.051 155.609 410.519 156.176 410.134 156.9C409.749 157.625 409.556 158.452 409.556 159.381C409.556 160.355 409.76 161.216 410.168 161.963C410.575 162.688 411.13 163.266 411.833 163.696C412.558 164.104 413.373 164.308 414.279 164.308C414.891 164.308 415.48 164.195 416.046 163.968C416.635 163.742 417.179 163.447 417.677 163.085L419.138 165.429C418.436 165.905 417.643 166.29 416.76 166.585C415.899 166.879 415.049 167.026 414.211 167.026ZM428.161 152.619L428.467 156.697L428.297 156.153C428.659 155.292 429.18 154.567 429.86 153.978C430.562 153.367 431.287 152.902 432.035 152.585C432.805 152.245 433.473 152.075 434.039 152.075L433.869 155.201C432.805 155.133 431.865 155.337 431.049 155.813C430.256 156.289 429.622 156.923 429.146 157.716C428.693 158.509 428.467 159.358 428.467 160.264V166.687H425.341V152.619H428.161ZM443.825 167.094L436.009 152.619H439.747L445.048 163.798L443.111 163.73L447.97 152.619H451.504L443.995 167.094H443.825ZM454.907 152.619H458.067V166.687H454.907V152.619ZM454.669 147.522C454.669 147.024 454.861 146.605 455.247 146.265C455.654 145.925 456.096 145.755 456.572 145.755C457.047 145.755 457.467 145.925 457.829 146.265C458.214 146.605 458.407 147.024 458.407 147.522C458.407 148.043 458.214 148.473 457.829 148.813C457.467 149.13 457.047 149.289 456.572 149.289C456.096 149.289 455.654 149.119 455.247 148.779C454.861 148.439 454.669 148.02 454.669 147.522ZM474.951 165.395C474.317 165.894 473.558 166.29 472.675 166.585C471.791 166.879 470.908 167.026 470.024 167.026C468.484 167.026 467.136 166.721 465.981 166.109C464.826 165.497 463.919 164.648 463.263 163.56C462.628 162.45 462.311 161.148 462.311 159.653C462.311 158.158 462.651 156.855 463.33 155.745C464.033 154.635 464.939 153.786 466.049 153.197C467.181 152.585 468.393 152.279 469.685 152.279C470.817 152.279 471.825 152.438 472.709 152.755C473.615 153.072 474.385 153.502 475.019 154.046L473.456 156.085C473.049 155.768 472.55 155.485 471.961 155.235C471.372 154.986 470.704 154.862 469.956 154.862C469.141 154.862 468.382 155.077 467.68 155.507C467 155.915 466.457 156.481 466.049 157.206C465.664 157.931 465.471 158.747 465.471 159.653C465.471 160.514 465.675 161.318 466.083 162.065C466.491 162.79 467.057 163.368 467.782 163.798C468.507 164.206 469.334 164.41 470.262 164.41C470.874 164.41 471.429 164.319 471.927 164.138C472.448 163.957 472.913 163.708 473.32 163.391L474.951 165.395ZM485.555 167.026C483.947 167.026 482.565 166.709 481.409 166.075C480.254 165.418 479.359 164.534 478.725 163.424C478.113 162.292 477.808 161.001 477.808 159.551C477.808 158.169 478.159 156.912 478.861 155.779C479.563 154.646 480.503 153.74 481.681 153.061C482.859 152.381 484.173 152.041 485.623 152.041C487.48 152.041 489.021 152.585 490.244 153.672C491.467 154.76 492.294 156.255 492.725 158.158L481.138 162.235L480.39 160.366L489.904 156.9L489.225 157.342C488.953 156.595 488.5 155.949 487.866 155.405C487.231 154.839 486.404 154.556 485.385 154.556C484.524 154.556 483.754 154.771 483.074 155.201C482.395 155.609 481.863 156.176 481.477 156.9C481.092 157.625 480.9 158.452 480.9 159.381C480.9 160.355 481.104 161.216 481.511 161.963C481.919 162.688 482.474 163.266 483.176 163.696C483.901 164.104 484.717 164.308 485.623 164.308C486.235 164.308 486.824 164.195 487.39 163.968C487.979 163.742 488.523 163.447 489.021 163.085L490.482 165.429C489.78 165.905 488.987 166.29 488.103 166.585C487.243 166.879 486.393 167.026 485.555 167.026ZM500.626 166.958C499.629 166.958 498.655 166.788 497.704 166.449C496.775 166.086 496.005 165.554 495.393 164.852L496.718 163.017C497.307 163.583 497.908 164.013 498.519 164.308C499.154 164.58 499.776 164.716 500.388 164.716C500.841 164.716 501.26 164.659 501.645 164.546C502.03 164.433 502.336 164.251 502.563 164.002C502.812 163.73 502.937 163.368 502.937 162.915C502.937 162.416 502.767 162.02 502.427 161.726C502.11 161.431 501.691 161.193 501.17 161.012C500.671 160.831 500.139 160.661 499.573 160.502C498.417 160.117 497.534 159.585 496.922 158.905C496.311 158.226 496.005 157.399 496.005 156.425C496.005 155.677 496.186 154.986 496.548 154.352C496.934 153.695 497.489 153.163 498.213 152.755C498.961 152.347 499.878 152.143 500.966 152.143C501.94 152.143 502.812 152.268 503.582 152.517C504.352 152.744 505.077 153.129 505.757 153.672L504.5 155.643C504.092 155.213 503.605 154.896 503.039 154.692C502.472 154.488 501.963 154.375 501.509 154.352C501.124 154.329 500.751 154.386 500.388 154.522C500.048 154.658 499.765 154.85 499.539 155.099C499.312 155.349 499.199 155.643 499.199 155.983C499.199 156.459 499.357 156.844 499.675 157.138C499.992 157.433 500.399 157.671 500.898 157.852C501.419 158.01 501.929 158.18 502.427 158.362C503.129 158.565 503.752 158.837 504.296 159.177C504.839 159.517 505.27 159.936 505.587 160.434C505.927 160.933 506.097 161.556 506.097 162.303C506.097 163.141 505.893 163.923 505.485 164.648C505.1 165.35 504.5 165.916 503.684 166.347C502.891 166.754 501.872 166.958 500.626 166.958ZM508.279 164.24C508.279 163.538 508.528 162.949 509.027 162.473C509.548 161.997 510.114 161.759 510.726 161.759C511.292 161.759 511.824 161.997 512.323 162.473C512.844 162.949 513.104 163.538 513.104 164.24C513.104 164.988 512.844 165.588 512.323 166.041C511.824 166.471 511.292 166.687 510.726 166.687C510.114 166.687 509.548 166.471 509.027 166.041C508.528 165.588 508.279 164.988 508.279 164.24ZM545.938 164.852C545.53 165.123 544.975 165.429 544.273 165.769C543.571 166.109 542.744 166.392 541.792 166.619C540.864 166.845 539.844 166.958 538.734 166.958C536.831 166.936 535.11 166.596 533.569 165.939C532.052 165.282 530.76 164.387 529.696 163.255C528.631 162.122 527.804 160.819 527.215 159.347C526.649 157.852 526.366 156.266 526.366 154.59C526.366 152.755 526.66 151.067 527.249 149.527C527.861 147.964 528.71 146.616 529.798 145.483C530.885 144.328 532.165 143.433 533.637 142.799C535.132 142.165 536.764 141.847 538.53 141.847C540.003 141.847 541.339 142.051 542.54 142.459C543.741 142.844 544.771 143.309 545.632 143.852L544.307 146.91C543.627 146.457 542.801 146.027 541.826 145.619C540.875 145.211 539.81 145.008 538.632 145.008C537.432 145.008 536.299 145.245 535.234 145.721C534.17 146.197 533.23 146.865 532.414 147.726C531.599 148.587 530.953 149.595 530.477 150.75C530.024 151.883 529.798 153.106 529.798 154.42C529.798 155.756 530.002 157.002 530.409 158.158C530.84 159.29 531.44 160.276 532.21 161.114C533.003 161.952 533.955 162.609 535.065 163.085C536.175 163.56 537.42 163.798 538.802 163.798C540.048 163.798 541.158 163.606 542.132 163.221C543.106 162.836 543.911 162.405 544.545 161.929L545.938 164.852ZM549.483 159.517C549.483 158.112 549.812 156.844 550.469 155.711C551.148 154.578 552.077 153.684 553.255 153.027C554.433 152.37 555.769 152.041 557.265 152.041C558.805 152.041 560.153 152.37 561.308 153.027C562.463 153.684 563.358 154.578 563.993 155.711C564.627 156.844 564.944 158.112 564.944 159.517C564.944 160.921 564.627 162.201 563.993 163.357C563.358 164.489 562.452 165.384 561.274 166.041C560.119 166.698 558.771 167.026 557.231 167.026C555.736 167.026 554.399 166.721 553.221 166.109C552.066 165.475 551.148 164.602 550.469 163.492C549.812 162.36 549.483 161.035 549.483 159.517ZM552.643 159.551C552.643 160.457 552.847 161.284 553.255 162.031C553.663 162.756 554.206 163.334 554.886 163.764C555.588 164.195 556.358 164.41 557.197 164.41C558.08 164.41 558.862 164.195 559.541 163.764C560.243 163.334 560.787 162.756 561.172 162.031C561.557 161.284 561.75 160.457 561.75 159.551C561.75 158.645 561.557 157.829 561.172 157.104C560.787 156.357 560.243 155.768 559.541 155.337C558.862 154.884 558.08 154.658 557.197 154.658C556.336 154.658 555.554 154.884 554.852 155.337C554.172 155.79 553.629 156.391 553.221 157.138C552.836 157.863 552.643 158.667 552.643 159.551ZM572.043 152.619L572.315 156.051L572.179 155.507C572.632 154.465 573.368 153.638 574.388 153.027C575.407 152.392 576.585 152.075 577.922 152.075C579.258 152.075 580.345 152.472 581.184 153.265C582.044 154.035 582.486 155.043 582.509 156.289V166.687H579.315V157.41C579.292 156.64 579.065 156.017 578.635 155.541C578.227 155.043 577.582 154.794 576.698 154.794C575.883 154.794 575.147 155.02 574.49 155.473C573.833 155.926 573.312 156.549 572.927 157.342C572.564 158.135 572.383 159.052 572.383 160.094V166.687H569.223V152.619H572.043ZM591.946 166.958C590.949 166.958 589.975 166.788 589.024 166.449C588.095 166.086 587.325 165.554 586.713 164.852L588.038 163.017C588.627 163.583 589.228 164.013 589.839 164.308C590.474 164.58 591.097 164.716 591.708 164.716C592.161 164.716 592.58 164.659 592.965 164.546C593.351 164.433 593.656 164.251 593.883 164.002C594.132 163.73 594.257 163.368 594.257 162.915C594.257 162.416 594.087 162.02 593.747 161.726C593.43 161.431 593.011 161.193 592.49 161.012C591.991 160.831 591.459 160.661 590.893 160.502C589.737 160.117 588.854 159.585 588.242 158.905C587.631 158.226 587.325 157.399 587.325 156.425C587.325 155.677 587.506 154.986 587.869 154.352C588.254 153.695 588.809 153.163 589.534 152.755C590.281 152.347 591.198 152.143 592.286 152.143C593.26 152.143 594.132 152.268 594.902 152.517C595.672 152.744 596.397 153.129 597.077 153.672L595.82 155.643C595.412 155.213 594.925 154.896 594.359 154.692C593.792 154.488 593.283 154.375 592.83 154.352C592.444 154.329 592.071 154.386 591.708 154.522C591.368 154.658 591.085 154.85 590.859 155.099C590.632 155.349 590.519 155.643 590.519 155.983C590.519 156.459 590.677 156.844 590.995 157.138C591.312 157.433 591.72 157.671 592.218 157.852C592.739 158.01 593.249 158.18 593.747 158.362C594.449 158.565 595.072 158.837 595.616 159.177C596.16 159.517 596.59 159.936 596.907 160.434C597.247 160.933 597.417 161.556 597.417 162.303C597.417 163.141 597.213 163.923 596.805 164.648C596.42 165.35 595.82 165.916 595.004 166.347C594.211 166.754 593.192 166.958 591.946 166.958ZM606.293 167.23C605.025 167.23 603.971 166.845 603.133 166.075C602.318 165.282 601.887 164.263 601.842 163.017V152.619H605.002V161.895C605.047 162.666 605.262 163.289 605.648 163.764C606.055 164.24 606.69 164.489 607.55 164.512C608.343 164.512 609.045 164.285 609.657 163.832C610.291 163.357 610.801 162.722 611.186 161.929C611.571 161.114 611.764 160.196 611.764 159.177V152.619H614.924V166.687H612.036L611.764 163.221L611.934 163.832C611.662 164.489 611.243 165.078 610.677 165.599C610.133 166.098 609.487 166.494 608.74 166.788C607.992 167.083 607.177 167.23 606.293 167.23ZM620.391 140.386H623.551V166.687H620.391V140.386ZM630.378 146.435H633.538V152.687H637.412V155.167H633.538V166.687H630.378V155.167H627.796V152.687H630.378V146.435ZM641.23 152.619H644.39V166.687H641.23V152.619ZM640.992 147.522C640.992 147.024 641.185 146.605 641.57 146.265C641.978 145.925 642.42 145.755 642.895 145.755C643.371 145.755 643.79 145.925 644.152 146.265C644.538 146.605 644.73 147.024 644.73 147.522C644.73 148.043 644.538 148.473 644.152 148.813C643.79 149.13 643.371 149.289 642.895 149.289C642.42 149.289 641.978 149.119 641.57 148.779C641.185 148.439 640.992 148.02 640.992 147.522ZM652.678 152.619L652.95 156.051L652.814 155.507C653.267 154.465 654.003 153.638 655.023 153.027C656.042 152.392 657.22 152.075 658.557 152.075C659.893 152.075 660.98 152.472 661.819 153.265C662.679 154.035 663.121 155.043 663.144 156.289V166.687H659.95V157.41C659.927 156.64 659.701 156.017 659.27 155.541C658.862 155.043 658.217 154.794 657.333 154.794C656.518 154.794 655.782 155.02 655.125 155.473C654.468 155.926 653.947 156.549 653.562 157.342C653.199 158.135 653.018 159.052 653.018 160.094V166.687H649.858V152.619H652.678ZM675.401 173.652C674.359 173.652 673.442 173.528 672.649 173.279C671.856 173.052 671.131 172.724 670.474 172.293C669.84 171.863 669.229 171.376 668.64 170.832L670.474 168.691C671.222 169.394 671.981 169.937 672.751 170.322C673.521 170.707 674.382 170.9 675.333 170.9C676.398 170.9 677.293 170.719 678.018 170.356C678.765 170.017 679.332 169.529 679.717 168.895C680.102 168.284 680.295 167.57 680.295 166.754L680.328 162.949L680.6 163.56C680.193 164.534 679.456 165.361 678.392 166.041C677.327 166.698 676.036 167.026 674.518 167.026C673.227 167.026 672.037 166.698 670.95 166.041C669.885 165.384 669.025 164.501 668.368 163.391C667.733 162.258 667.416 160.989 667.416 159.585C667.416 158.112 667.756 156.821 668.436 155.711C669.115 154.578 670.01 153.684 671.12 153.027C672.23 152.37 673.442 152.041 674.756 152.041C676.002 152.041 677.134 152.302 678.154 152.823C679.196 153.321 679.955 153.967 680.43 154.76L680.261 155.337L680.6 152.619H683.489V166.788C683.489 168.057 683.16 169.212 682.503 170.254C681.846 171.296 680.917 172.123 679.717 172.735C678.516 173.347 677.078 173.652 675.401 173.652ZM670.576 159.517C670.576 160.423 670.792 161.25 671.222 161.997C671.652 162.745 672.23 163.334 672.955 163.764C673.702 164.195 674.529 164.41 675.435 164.41C676.274 164.41 677.021 164.263 677.678 163.968C678.358 163.651 678.924 163.232 679.377 162.711C679.83 162.167 680.147 161.544 680.328 160.842V158.056C680.125 157.376 679.785 156.787 679.309 156.289C678.833 155.768 678.267 155.371 677.61 155.099C676.953 154.805 676.228 154.658 675.435 154.658C674.529 154.658 673.702 154.862 672.955 155.269C672.23 155.677 671.652 156.255 671.222 157.002C670.792 157.727 670.576 158.565 670.576 159.517Z" fill="white"/>
</g>
<defs>
<linearGradient id="paint0_linear_857_1580" x1="138.497" y1="51.262" x2="112.403" y2="171.305" gradientUnits="userSpaceOnUse">
<stop stop-color="#003E64"/>
<stop offset="0.28" stop-color="#0D5787"/>
<stop offset="0.57" stop-color="#196DA6"/>
<stop offset="0.82" stop-color="#207BB9"/>
<stop offset="1" stop-color="#2380C0"/>
</linearGradient>
<radialGradient id="paint1_radial_857_1580" cx="0" cy="0" r="1" gradientUnits="userSpaceOnUse" gradientTransform="translate(155.091 12.7789) rotate(137.789) scale(283.308 283.388)">
<stop stop-color="#D0E5B3"/>
<stop offset="0.34" stop-color="#61C5D2"/>
<stop offset="0.57" stop-color="#1CB2E7"/>
<stop offset="0.97" stop-color="#005B86"/>
<stop offset="1" stop-color="#005B86"/>
</radialGradient>
<linearGradient id="paint2_linear_857_1580" x1="101.582" y1="91.0411" x2="71.3365" y2="152.28" gradientUnits="userSpaceOnUse">
<stop stop-color="#003E64"/>
<stop offset="0.28" stop-color="#0D5787"/>
<stop offset="0.57" stop-color="#196DA6"/>
<stop offset="0.82" stop-color="#207BB9"/>
<stop offset="1" stop-color="#2380C0"/>
</linearGradient>
<radialGradient id="paint3_radial_857_1580" cx="0" cy="0" r="1" gradientUnits="userSpaceOnUse" gradientTransform="translate(87.903 137.507) rotate(110.068) scale(85.0763 84.8924)">
<stop stop-color="#2483C5"/>
<stop offset="0.36" stop-color="#2483C5"/>
<stop offset="1" stop-color="#000015"/>
</radialGradient>
<radialGradient id="paint4_radial_857_1580" cx="0" cy="0" r="1" gradientUnits="userSpaceOnUse" gradientTransform="translate(155.712 12.2556) rotate(137.789) scale(283.309 283.388)">
<stop stop-color="#D0E5B3"/>
<stop offset="0.17" stop-color="#61C5D2"/>
<stop offset="0.29" stop-color="#1CB2E7"/>
<stop offset="0.97" stop-color="#0087C6"/>
<stop offset="1" stop-color="#0087C6"/>
</radialGradient>
<radialGradient id="paint5_radial_857_1580" cx="0" cy="0" r="1" gradientUnits="userSpaceOnUse" gradientTransform="translate(110.889 162.426) rotate(-70.4812) scale(102.442 102.217)">
<stop stop-color="#2483C5"/>
<stop offset="0.36" stop-color="#2483C5"/>
<stop offset="1" stop-color="#000015"/>
</radialGradient>
<radialGradient id="paint6_radial_857_1580" cx="0" cy="0" r="1" gradientUnits="userSpaceOnUse" gradientTransform="translate(155.053 12.796) rotate(137.799) scale(283.308 283.388)">
<stop stop-color="#D0E5B3"/>
<stop offset="0.17" stop-color="#61C5D2"/>
<stop offset="0.29" stop-color="#1CB2E7"/>
<stop offset="0.97" stop-color="#0087C6"/>
<stop offset="1" stop-color="#0087C6"/>
</radialGradient>
<clipPath id="clip0_857_1580">
<rect width="704" height="226" fill="white"/>
</clipPath>
</defs>
</svg>
