<svg width="704" height="226" viewBox="0 0 704 226" fill="none" xmlns="http://www.w3.org/2000/svg">
<g clip-path="url(#clip0_892_1112)">
<path d="M609.7 185.5H259C247.954 185.5 239 194.454 239 205.5V206C239 217.046 247.954 226 259 226H609.7C620.746 226 629.7 217.046 629.7 206V205.5C629.7 194.454 620.746 185.5 609.7 185.5Z" fill="#36617F"/>
<path d="M433.78 27.8501C409.359 27.8501 389.485 47.7701 389.485 72.2701C389.485 96.7701 409.359 116.7 433.78 116.7C458.2 116.7 478.074 96.7701 478.074 72.2701C478.074 47.7701 458.2 27.8501 433.78 27.8501ZM433.78 106.82C414.784 106.82 399.327 91.3201 399.327 72.2701C399.327 53.2201 414.784 37.7201 433.78 37.7201C452.776 37.7201 468.232 53.2201 468.232 72.2701C468.232 91.3201 452.776 106.82 433.78 106.82Z" fill="#46718F"/>
<path d="M330.104 27.8501C305.683 27.8501 285.8 47.7801 285.8 72.2701V111.76C285.8 114.49 288.004 116.69 290.726 116.69C293.448 116.69 295.652 114.48 295.652 111.76V72.2701C295.652 53.2201 311.108 37.7201 330.104 37.7201C349.1 37.7201 364.556 53.2201 364.556 72.2701V111.76C364.556 114.49 366.76 116.69 369.482 116.69C372.205 116.69 374.398 114.48 374.398 111.76V72.2701C374.398 47.7701 354.525 27.8501 330.104 27.8501Z" fill="#46718F"/>
<path d="M669.142 67.3401H629.763C621.627 67.3401 614.995 60.7001 614.995 52.5301C614.995 44.3601 621.617 37.7201 629.763 37.7201H680.948C683.671 37.7201 685.864 35.5101 685.864 32.7801C685.864 30.0501 683.661 27.8501 680.948 27.8501H629.763C616.192 27.8501 605.153 38.9201 605.153 52.5301C605.153 66.1401 616.192 77.2101 629.763 77.2101H669.142C677.289 77.2101 683.91 83.8501 683.91 92.0201C683.91 100.19 677.289 106.82 669.142 106.82H617.957C615.235 106.82 613.031 109.04 613.031 111.76C613.031 114.48 615.235 116.7 617.957 116.7H669.142C682.713 116.7 693.752 105.63 693.752 92.0201C693.752 78.4101 682.713 67.3401 669.142 67.3401Z" fill="#46718F"/>
<path d="M554.776 27.8501H492.612C489.89 27.8501 487.696 30.0601 487.696 32.7801C487.696 35.5001 489.9 37.7201 492.612 37.7201H518.778V111.76C518.778 114.49 520.982 116.69 523.704 116.69C526.426 116.69 528.62 114.48 528.62 111.76V37.7201H554.776C557.498 37.7201 559.702 35.5001 559.702 32.7801C559.702 30.0601 557.498 27.8501 554.776 27.8501Z" fill="#46718F"/>
<path d="M582.428 27.8501C579.705 27.8501 577.512 30.0601 577.512 32.7801V111.76C577.512 114.49 579.715 116.69 582.428 116.69C585.14 116.69 587.354 114.48 587.354 111.76V32.7801C587.354 30.0501 585.15 27.8501 582.428 27.8501Z" fill="#46718F"/>
<path d="M265.806 77.8601H240.408C237.686 77.8601 235.482 80.0601 235.482 82.7901C235.482 85.5201 237.686 87.7301 240.408 87.7301H258.647C252.873 99.2301 240.997 106.82 227.854 106.82C208.858 106.82 193.402 91.3201 193.402 72.2701C193.402 53.2201 208.858 37.7201 227.854 37.7201C234.236 37.7201 240.478 39.5001 245.913 42.8801C248.216 44.3201 251.258 43.6101 252.694 41.3001C254.13 38.9901 253.412 35.9401 251.108 34.5001C244.118 30.1501 236.081 27.8501 227.854 27.8501C203.423 27.8501 183.55 47.7801 183.55 72.2701C183.55 96.7601 203.423 116.69 227.854 116.69C247.658 116.69 265.218 103.29 270.543 84.1201C270.962 82.6301 270.653 81.0401 269.725 79.8101C268.798 78.5801 267.342 77.8601 265.806 77.8601Z" fill="#46718F"/>
<mask id="mask0_892_1112" style="mask-type:luminance" maskUnits="userSpaceOnUse" x="103" y="46" width="45" height="120">
<path d="M103.169 46.4114C111.308 46.4114 117.969 53.091 117.969 61.2403V165.097C134.315 165.097 147.557 151.804 147.557 135.425V90.9116C139.91 47.8141 107.818 46.3979 103.635 46.3979C103.342 46.3979 103.182 46.3979 103.182 46.3979" fill="white"/>
</mask>
<g mask="url(#mask0_892_1112)">
<path d="M105.177 37.1914L78.6836 159.764L145.577 174.304L172.07 51.7321L105.177 37.1914Z" fill="url(#paint0_linear_892_1112)"/>
</g>
<mask id="mask1_892_1112" style="mask-type:luminance" maskUnits="userSpaceOnUse" x="-1" y="105" width="60" height="61">
<path d="M-0.378906 105.754V149.266C-0.378906 158.003 6.68157 165.097 15.3939 165.097H58.7959V114.772C58.7959 109.789 54.7728 105.754 49.8171 105.754H-0.378906Z" fill="white"/>
</mask>
<g mask="url(#mask1_892_1112)">
<path d="M32.1667 76.2046L-29.8184 132.43L26.2484 194.591L88.2335 138.365L32.1667 76.2046Z" fill="url(#paint1_radial_892_1112)"/>
</g>
<mask id="mask2_892_1112" style="mask-type:luminance" maskUnits="userSpaceOnUse" x="63" y="90" width="41" height="76">
<path d="M63.2324 90.9119C68.9208 90.9119 73.5833 95.5877 73.5833 101.305V165.097H103.171V127.998C97.8687 93.7574 74.0363 90.7783 65.9367 90.7783C64.2449 90.7783 63.2324 90.9119 63.2324 90.9119Z" fill="white"/>
</mask>
<g mask="url(#mask2_892_1112)">
<path d="M71.026 74.9028L33.8633 150.575L95.3747 180.955L132.537 105.283L71.026 74.9028Z" fill="url(#paint2_linear_892_1112)"/>
</g>
<mask id="mask3_892_1112" style="mask-type:luminance" maskUnits="userSpaceOnUse" x="63" y="90" width="41" height="76">
<path d="M63.2324 90.9119C68.9208 90.9119 73.5833 95.5877 73.5833 101.305V165.097H103.171V127.998C97.8687 93.7574 74.0363 90.7783 65.9367 90.7783C64.2449 90.7783 63.2324 90.9119 63.2324 90.9119Z" fill="white"/>
</mask>
<g mask="url(#mask3_892_1112)">
<path d="M67.9499 77.8364L39.291 156.288L98.4321 178.015L127.091 99.5638L67.9499 77.8364Z" fill="url(#paint3_radial_892_1112)"/>
</g>
<mask id="mask4_892_1112" style="mask-type:luminance" maskUnits="userSpaceOnUse" x="-1" y="61" width="105" height="67">
<path d="M-0.378906 61.2402V90.9116H58.7959C73.3298 90.9116 95.2706 90.1367 103.17 127.997V74.5062C103.17 69.4029 99.1072 61.2402 89.9419 61.2402H-0.378906Z" fill="white"/>
</mask>
<g mask="url(#mask4_892_1112)">
<path d="M56.5759 9.55518L-33.4971 91.2592L46.2154 179.636L136.288 97.9318L56.5759 9.55518Z" fill="url(#paint4_radial_892_1112)"/>
</g>
<g opacity="0.24">
<mask id="mask5_892_1112" style="mask-type:luminance" maskUnits="userSpaceOnUse" x="103" y="46" width="45" height="120">
<g opacity="0.24">
<path d="M147.542 46.4116H103.168V165.11H147.542V46.4116Z" fill="white"/>
</g>
</mask>
<g mask="url(#mask5_892_1112)">
<mask id="mask6_892_1112" style="mask-type:luminance" maskUnits="userSpaceOnUse" x="103" y="46" width="45" height="120">
<g opacity="0.24">
<path d="M103.167 46.4251C111.307 46.4251 117.967 53.1049 117.967 61.2675V165.11C134.313 165.11 147.555 151.817 147.555 135.439V90.9388C138.363 43.9002 103.18 46.4251 103.18 46.4251" fill="white"/>
</g>
</mask>
<g mask="url(#mask6_892_1112)">
<path d="M108.152 29.8628L65.0293 151.51L142.576 179.156L185.699 57.5085L108.152 29.8628Z" fill="url(#paint5_radial_892_1112)"/>
</g>
</g>
</g>
<mask id="mask7_892_1112" style="mask-type:luminance" maskUnits="userSpaceOnUse" x="-1" y="16" width="149" height="75">
<path d="M29.2085 16.7402C12.8628 16.7402 -0.378906 30.0195 -0.378906 46.4115H103.17C103.17 46.4115 138.673 44.4477 147.545 90.9119V34.4415C147.545 33.4662 147.452 32.5311 147.292 31.5959V31.5692C146.066 24.128 140.191 18.2231 132.758 16.994C132.758 16.994 132.651 16.9673 132.451 16.9539C131.612 16.8203 130.76 16.7402 129.88 16.7402H29.2085Z" fill="white"/>
</mask>
<g mask="url(#mask7_892_1112)">
<path d="M80.9969 -57.0415L-37.1826 50.12L66.1555 164.73L184.335 57.569L80.9969 -57.0415Z" fill="url(#paint6_radial_892_1112)"/>
</g>
<path d="M259.85 216.519H256.895L265.441 193.247H268.35L276.895 216.519H273.941L266.986 196.928H266.804L259.85 216.519ZM260.941 207.429H272.85V209.928H260.941V207.429ZM282.839 206.019V216.519H280.157V199.065H282.748V201.792H282.975C283.384 200.906 284.005 200.194 284.839 199.656C285.672 199.11 286.748 198.838 288.066 198.838C289.248 198.838 290.282 199.08 291.168 199.565C292.054 200.042 292.744 200.769 293.236 201.747C293.729 202.716 293.975 203.944 293.975 205.429V216.519H291.293V205.61C291.293 204.239 290.937 203.171 290.225 202.406C289.513 201.633 288.535 201.247 287.293 201.247C286.437 201.247 285.672 201.432 284.998 201.803C284.331 202.175 283.804 202.716 283.418 203.428C283.032 204.141 282.839 205.004 282.839 206.019ZM307.978 216.519V193.247H322.569V196.269H311.489V203.36H321.807V206.372H311.489V213.497H322.705V216.519H307.978ZM330.77 193.247V216.519H327.259V193.247H330.77ZM335.884 216.519V193.247H339.395V213.497H349.941V216.519H335.884ZM378.165 200.599C377.946 199.91 377.65 199.292 377.279 198.747C376.915 198.194 376.48 197.724 375.972 197.338C375.464 196.944 374.885 196.644 374.233 196.44C373.589 196.235 372.881 196.133 372.108 196.133C370.798 196.133 369.616 196.47 368.563 197.144C367.51 197.819 366.677 198.807 366.063 200.11C365.457 201.406 365.154 202.993 365.154 204.872C365.154 206.758 365.461 208.353 366.074 209.656C366.688 210.959 367.529 211.947 368.597 212.622C369.665 213.296 370.881 213.633 372.245 213.633C373.51 213.633 374.612 213.375 375.552 212.86C376.499 212.345 377.23 211.618 377.745 210.678C378.267 209.732 378.529 208.618 378.529 207.338L379.438 207.508H372.779V204.61H381.927V207.258C381.927 209.213 381.51 210.91 380.677 212.349C379.851 213.781 378.707 214.887 377.245 215.667C375.79 216.447 374.124 216.838 372.245 216.838C370.139 216.838 368.29 216.353 366.699 215.383C365.116 214.413 363.881 213.038 362.995 211.258C362.108 209.47 361.665 207.349 361.665 204.894C361.665 203.038 361.923 201.372 362.438 199.894C362.953 198.417 363.677 197.163 364.608 196.133C365.548 195.095 366.65 194.303 367.915 193.758C369.188 193.205 370.578 192.928 372.086 192.928C373.343 192.928 374.514 193.114 375.597 193.485C376.688 193.857 377.658 194.383 378.506 195.065C379.362 195.747 380.071 196.557 380.631 197.497C381.192 198.428 381.571 199.463 381.767 200.599H378.165ZM389.509 193.247V216.519H386.111V193.247H389.509ZM401.432 216.872C399.796 216.872 398.368 216.497 397.148 215.747C395.928 214.997 394.982 213.947 394.307 212.599C393.633 211.25 393.296 209.675 393.296 207.872C393.296 206.061 393.633 204.478 394.307 203.122C394.982 201.766 395.928 200.713 397.148 199.963C398.368 199.213 399.796 198.838 401.432 198.838C403.069 198.838 404.497 199.213 405.716 199.963C406.936 200.713 407.883 201.766 408.557 203.122C409.232 204.478 409.569 206.061 409.569 207.872C409.569 209.675 409.232 211.25 408.557 212.599C407.883 213.947 406.936 214.997 405.716 215.747C404.497 216.497 403.069 216.872 401.432 216.872ZM401.444 214.019C402.504 214.019 403.383 213.739 404.08 213.178C404.777 212.618 405.292 211.872 405.625 210.94C405.966 210.008 406.137 208.982 406.137 207.86C406.137 206.747 405.966 205.724 405.625 204.792C405.292 203.853 404.777 203.099 404.08 202.531C403.383 201.963 402.504 201.678 401.444 201.678C400.375 201.678 399.489 201.963 398.785 202.531C398.088 203.099 397.569 203.853 397.228 204.792C396.894 205.724 396.728 206.747 396.728 207.86C396.728 208.982 396.894 210.008 397.228 210.94C397.569 211.872 398.088 212.618 398.785 213.178C399.489 213.739 400.375 214.019 401.444 214.019ZM413.634 216.519V193.247H417.032V201.894H417.236C417.433 201.531 417.717 201.11 418.089 200.633C418.46 200.156 418.975 199.739 419.634 199.383C420.293 199.019 421.164 198.838 422.248 198.838C423.657 198.838 424.914 199.194 426.02 199.906C427.126 200.618 427.994 201.644 428.623 202.985C429.259 204.326 429.577 205.94 429.577 207.826C429.577 209.713 429.263 211.33 428.634 212.678C428.005 214.019 427.142 215.054 426.043 215.781C424.945 216.5 423.691 216.86 422.282 216.86C421.221 216.86 420.354 216.682 419.679 216.326C419.013 215.97 418.49 215.554 418.111 215.076C417.732 214.599 417.441 214.175 417.236 213.803H416.952V216.519H413.634ZM416.964 207.792C416.964 209.019 417.142 210.095 417.498 211.019C417.854 211.944 418.369 212.667 419.043 213.19C419.717 213.705 420.543 213.963 421.52 213.963C422.535 213.963 423.384 213.694 424.066 213.156C424.748 212.61 425.263 211.872 425.611 210.94C425.967 210.008 426.145 208.959 426.145 207.792C426.145 206.641 425.971 205.607 425.623 204.69C425.282 203.773 424.767 203.05 424.077 202.519C423.395 201.989 422.543 201.724 421.52 201.724C420.535 201.724 419.702 201.978 419.02 202.485C418.346 202.993 417.835 203.701 417.486 204.61C417.138 205.519 416.964 206.58 416.964 207.792ZM438.472 216.906C437.366 216.906 436.366 216.701 435.472 216.292C434.578 215.875 433.87 215.273 433.347 214.485C432.832 213.697 432.574 212.732 432.574 211.588C432.574 210.603 432.764 209.792 433.142 209.156C433.521 208.519 434.033 208.016 434.677 207.644C435.321 207.273 436.04 206.993 436.836 206.804C437.631 206.614 438.442 206.47 439.267 206.372C440.313 206.25 441.161 206.152 441.813 206.076C442.464 205.993 442.938 205.86 443.233 205.679C443.529 205.497 443.677 205.201 443.677 204.792V204.713C443.677 203.72 443.396 202.951 442.836 202.406C442.283 201.86 441.457 201.588 440.358 201.588C439.214 201.588 438.313 201.841 437.654 202.349C437.002 202.849 436.552 203.406 436.302 204.019L433.108 203.292C433.487 202.232 434.04 201.375 434.767 200.724C435.502 200.065 436.347 199.588 437.302 199.292C438.256 198.989 439.26 198.838 440.313 198.838C441.01 198.838 441.749 198.921 442.529 199.088C443.317 199.247 444.052 199.542 444.733 199.974C445.423 200.406 445.987 201.023 446.427 201.826C446.866 202.622 447.086 203.656 447.086 204.929V216.519H443.767V214.133H443.631C443.411 214.572 443.082 215.004 442.642 215.429C442.203 215.853 441.639 216.205 440.949 216.485C440.26 216.766 439.434 216.906 438.472 216.906ZM439.211 214.178C440.15 214.178 440.953 213.993 441.62 213.622C442.294 213.25 442.805 212.766 443.154 212.167C443.51 211.561 443.688 210.913 443.688 210.224V207.974C443.567 208.095 443.332 208.209 442.983 208.315C442.642 208.413 442.252 208.5 441.813 208.576C441.374 208.644 440.946 208.709 440.529 208.769C440.112 208.822 439.764 208.868 439.483 208.906C438.824 208.989 438.222 209.129 437.677 209.326C437.139 209.523 436.707 209.807 436.381 210.178C436.063 210.542 435.904 211.027 435.904 211.633C435.904 212.474 436.214 213.11 436.836 213.542C437.457 213.966 438.249 214.178 439.211 214.178ZM455.009 193.247V216.519H451.611V193.247H455.009ZM487.841 200.519H485.023C484.857 199.709 484.565 198.997 484.148 198.383C483.739 197.769 483.239 197.254 482.648 196.838C482.065 196.413 481.417 196.095 480.705 195.883C479.993 195.671 479.25 195.565 478.478 195.565C477.069 195.565 475.792 195.921 474.648 196.633C473.512 197.345 472.607 198.394 471.932 199.781C471.266 201.167 470.932 202.868 470.932 204.883C470.932 206.898 471.266 208.599 471.932 209.985C472.607 211.372 473.512 212.421 474.648 213.133C475.792 213.845 477.069 214.201 478.478 214.201C479.25 214.201 479.993 214.095 480.705 213.883C481.417 213.671 482.065 213.357 482.648 212.94C483.239 212.516 483.739 211.997 484.148 211.383C484.565 210.762 484.857 210.05 485.023 209.247H487.841C487.629 210.436 487.243 211.5 486.682 212.44C486.122 213.379 485.425 214.178 484.591 214.838C483.758 215.489 482.822 215.985 481.785 216.326C480.754 216.667 479.652 216.838 478.478 216.838C476.493 216.838 474.728 216.353 473.182 215.383C471.637 214.413 470.421 213.035 469.535 211.247C468.648 209.459 468.205 207.338 468.205 204.883C468.205 202.428 468.648 200.307 469.535 198.519C470.421 196.732 471.637 195.353 473.182 194.383C474.728 193.413 476.493 192.928 478.478 192.928C479.652 192.928 480.754 193.099 481.785 193.44C482.822 193.781 483.758 194.281 484.591 194.94C485.425 195.591 486.122 196.387 486.682 197.326C487.243 198.258 487.629 199.322 487.841 200.519ZM499.123 216.883C497.547 216.883 496.164 216.508 494.975 215.758C493.793 215.008 492.869 213.959 492.202 212.61C491.543 211.262 491.214 209.686 491.214 207.883C491.214 206.065 491.543 204.478 492.202 203.122C492.869 201.766 493.793 200.713 494.975 199.963C496.164 199.213 497.547 198.838 499.123 198.838C500.698 198.838 502.077 199.213 503.259 199.963C504.448 200.713 505.373 201.766 506.032 203.122C506.698 204.478 507.032 206.065 507.032 207.883C507.032 209.686 506.698 211.262 506.032 212.61C505.373 213.959 504.448 215.008 503.259 215.758C502.077 216.508 500.698 216.883 499.123 216.883ZM499.123 214.474C500.32 214.474 501.304 214.167 502.077 213.553C502.85 212.94 503.422 212.133 503.793 211.133C504.164 210.133 504.35 209.05 504.35 207.883C504.35 206.716 504.164 205.629 503.793 204.622C503.422 203.614 502.85 202.8 502.077 202.178C501.304 201.557 500.32 201.247 499.123 201.247C497.926 201.247 496.941 201.557 496.168 202.178C495.395 202.8 494.823 203.614 494.452 204.622C494.081 205.629 493.895 206.716 493.895 207.883C493.895 209.05 494.081 210.133 494.452 211.133C494.823 212.133 495.395 212.94 496.168 213.553C496.941 214.167 497.926 214.474 499.123 214.474ZM511.125 216.519V199.065H513.716V201.792H513.944C514.307 200.86 514.894 200.137 515.705 199.622C516.516 199.099 517.489 198.838 518.625 198.838C519.777 198.838 520.735 199.099 521.5 199.622C522.273 200.137 522.875 200.86 523.307 201.792H523.489C523.936 200.891 524.607 200.175 525.5 199.644C526.394 199.107 527.466 198.838 528.716 198.838C530.277 198.838 531.553 199.326 532.546 200.303C533.538 201.273 534.035 202.785 534.035 204.838V216.519H531.353V204.838C531.353 203.55 531 202.629 530.296 202.076C529.591 201.523 528.762 201.247 527.807 201.247C526.58 201.247 525.629 201.618 524.955 202.36C524.281 203.095 523.944 204.027 523.944 205.156V216.519H521.216V204.565C521.216 203.572 520.894 202.773 520.25 202.167C519.607 201.553 518.777 201.247 517.762 201.247C517.065 201.247 516.413 201.432 515.807 201.803C515.209 202.175 514.724 202.69 514.353 203.349C513.989 204 513.807 204.754 513.807 205.61V216.519H511.125ZM538.938 223.065V199.065H541.529V201.838H541.847C542.044 201.535 542.317 201.148 542.665 200.678C543.021 200.201 543.529 199.777 544.188 199.406C544.855 199.027 545.756 198.838 546.892 198.838C548.362 198.838 549.658 199.205 550.779 199.94C551.9 200.675 552.775 201.716 553.404 203.065C554.033 204.413 554.347 206.004 554.347 207.838C554.347 209.686 554.033 211.288 553.404 212.644C552.775 213.993 551.904 215.038 550.79 215.781C549.677 216.516 548.392 216.883 546.938 216.883C545.817 216.883 544.919 216.697 544.245 216.326C543.571 215.947 543.052 215.519 542.688 215.042C542.324 214.557 542.044 214.156 541.847 213.838H541.62V223.065H538.938ZM541.574 207.792C541.574 209.11 541.767 210.273 542.154 211.281C542.54 212.281 543.105 213.065 543.847 213.633C544.589 214.194 545.499 214.474 546.574 214.474C547.696 214.474 548.631 214.179 549.381 213.588C550.139 212.989 550.707 212.186 551.086 211.178C551.472 210.163 551.665 209.035 551.665 207.792C551.665 206.565 551.476 205.459 551.097 204.474C550.726 203.482 550.161 202.697 549.404 202.122C548.654 201.538 547.711 201.247 546.574 201.247C545.483 201.247 544.567 201.523 543.824 202.076C543.082 202.622 542.521 203.387 542.142 204.372C541.764 205.349 541.574 206.489 541.574 207.792ZM563.574 216.929C562.468 216.929 561.464 216.72 560.563 216.304C559.661 215.879 558.946 215.269 558.415 214.474C557.885 213.671 557.62 212.701 557.62 211.565C557.62 210.565 557.817 209.754 558.211 209.133C558.605 208.504 559.131 208.012 559.79 207.656C560.449 207.3 561.177 207.035 561.972 206.86C562.775 206.679 563.582 206.535 564.392 206.429C565.453 206.292 566.313 206.19 566.972 206.122C567.639 206.046 568.124 205.921 568.427 205.747C568.737 205.572 568.892 205.269 568.892 204.838V204.747C568.892 203.625 568.586 202.754 567.972 202.133C567.366 201.512 566.446 201.201 565.211 201.201C563.93 201.201 562.927 201.482 562.199 202.042C561.472 202.603 560.961 203.201 560.665 203.838L558.12 202.928C558.574 201.868 559.18 201.042 559.938 200.451C560.703 199.853 561.536 199.436 562.438 199.201C563.347 198.959 564.241 198.838 565.12 198.838C565.68 198.838 566.324 198.906 567.052 199.042C567.786 199.171 568.495 199.44 569.177 199.849C569.866 200.258 570.438 200.875 570.892 201.701C571.347 202.527 571.574 203.633 571.574 205.019V216.519H568.892V214.156H568.756C568.574 214.535 568.271 214.94 567.847 215.372C567.423 215.804 566.858 216.171 566.154 216.474C565.449 216.777 564.589 216.929 563.574 216.929ZM563.983 214.519C565.044 214.519 565.938 214.311 566.665 213.894C567.4 213.478 567.953 212.94 568.324 212.281C568.703 211.622 568.892 210.928 568.892 210.201V207.747C568.779 207.883 568.529 208.008 568.142 208.122C567.764 208.228 567.324 208.322 566.824 208.406C566.332 208.482 565.851 208.55 565.381 208.61C564.919 208.663 564.544 208.709 564.256 208.747C563.559 208.838 562.908 208.985 562.302 209.19C561.703 209.387 561.218 209.686 560.847 210.088C560.483 210.482 560.302 211.019 560.302 211.701C560.302 212.633 560.646 213.338 561.336 213.815C562.033 214.285 562.915 214.519 563.983 214.519ZM579.151 206.019V216.519H576.469V199.065H579.06V201.792H579.287C579.696 200.906 580.318 200.194 581.151 199.656C581.984 199.11 583.06 198.838 584.378 198.838C585.56 198.838 586.594 199.08 587.481 199.565C588.367 200.042 589.056 200.769 589.549 201.747C590.041 202.716 590.287 203.944 590.287 205.429V216.519H587.606V205.61C587.606 204.239 587.249 203.171 586.537 202.406C585.825 201.633 584.848 201.247 583.606 201.247C582.749 201.247 581.984 201.432 581.31 201.803C580.643 202.175 580.117 202.716 579.731 203.428C579.344 204.141 579.151 205.004 579.151 206.019ZM596.29 223.065C595.836 223.065 595.43 223.027 595.074 222.951C594.718 222.883 594.472 222.815 594.336 222.747L595.017 220.383C595.669 220.55 596.245 220.61 596.745 220.565C597.245 220.519 597.688 220.296 598.074 219.894C598.468 219.5 598.828 218.86 599.154 217.974L599.654 216.61L593.199 199.065H596.108L600.927 212.974H601.108L605.927 199.065H608.836L601.427 219.065C601.093 219.966 600.68 220.713 600.188 221.304C599.696 221.902 599.124 222.345 598.472 222.633C597.828 222.921 597.101 223.065 596.29 223.065Z" fill="white"/>
<path d="M200.754 142.611H217.265V145.81H210.592V167.48H207.255V145.81H200.754V142.611ZM224.682 167.824C223.054 167.824 221.655 167.503 220.486 166.861C219.316 166.196 218.41 165.301 217.768 164.178C217.149 163.031 216.84 161.724 216.84 160.257C216.84 158.858 217.195 157.585 217.906 156.438C218.617 155.292 219.568 154.375 220.761 153.687C221.953 152.999 223.283 152.655 224.751 152.655C226.631 152.655 228.191 153.205 229.429 154.306C230.667 155.407 231.504 156.92 231.94 158.846L220.211 162.974L219.454 161.082L229.085 157.574L228.397 158.021C228.122 157.264 227.663 156.61 227.021 156.06C226.379 155.487 225.542 155.2 224.51 155.2C223.639 155.2 222.859 155.418 222.171 155.854C221.483 156.266 220.944 156.84 220.555 157.574C220.165 158.307 219.97 159.144 219.97 160.085C219.97 161.071 220.176 161.942 220.589 162.699C221.002 163.433 221.563 164.017 222.274 164.453C223.008 164.866 223.834 165.072 224.751 165.072C225.37 165.072 225.966 164.958 226.54 164.728C227.136 164.499 227.686 164.201 228.191 163.834L229.67 166.207C228.959 166.689 228.156 167.079 227.262 167.377C226.391 167.675 225.531 167.824 224.682 167.824ZM247.506 166.173C246.864 166.677 246.096 167.079 245.201 167.377C244.307 167.675 243.413 167.824 242.518 167.824C240.959 167.824 239.595 167.514 238.425 166.895C237.255 166.276 236.338 165.416 235.673 164.315C235.031 163.192 234.71 161.873 234.71 160.36C234.71 158.846 235.054 157.528 235.742 156.404C236.453 155.28 237.37 154.42 238.494 153.824C239.64 153.205 240.867 152.896 242.174 152.896C243.321 152.896 244.341 153.056 245.236 153.377C246.153 153.698 246.933 154.134 247.575 154.684L245.992 156.748C245.58 156.427 245.075 156.14 244.479 155.888C243.883 155.636 243.206 155.51 242.449 155.51C241.624 155.51 240.856 155.728 240.145 156.163C239.457 156.576 238.907 157.149 238.494 157.883C238.104 158.617 237.909 159.442 237.909 160.36C237.909 161.231 238.115 162.045 238.528 162.802C238.941 163.536 239.514 164.121 240.248 164.556C240.982 164.969 241.819 165.175 242.759 165.175C243.378 165.175 243.94 165.084 244.445 164.9C244.972 164.717 245.442 164.464 245.855 164.143L247.506 166.173ZM251.635 167.48V140.856H254.766V156.542L254.697 155.957C255.178 155.017 255.912 154.237 256.898 153.618C257.907 152.999 259.088 152.689 260.441 152.689C261.794 152.689 262.895 153.09 263.743 153.893C264.615 154.673 265.062 155.693 265.085 156.954V167.48H261.851V158.09C261.829 157.31 261.599 156.679 261.164 156.198C260.751 155.693 260.097 155.441 259.203 155.441C258.377 155.441 257.632 155.682 256.967 156.163C256.302 156.622 255.775 157.253 255.385 158.055C255.018 158.858 254.834 159.775 254.834 160.807V167.48H251.635ZM273.503 153.239L273.778 156.714L273.641 156.163C274.099 155.108 274.845 154.271 275.876 153.652C276.908 153.01 278.101 152.689 279.454 152.689C280.807 152.689 281.907 153.09 282.756 153.893C283.627 154.673 284.074 155.693 284.097 156.954V167.48H280.864V158.09C280.841 157.31 280.612 156.679 280.176 156.198C279.763 155.693 279.11 155.441 278.215 155.441C277.39 155.441 276.645 155.67 275.98 156.129C275.315 156.587 274.787 157.218 274.397 158.021C274.03 158.823 273.847 159.752 273.847 160.807V167.48H270.648V153.239H273.503ZM288.422 160.222C288.422 158.8 288.755 157.516 289.42 156.37C290.108 155.223 291.048 154.317 292.24 153.652C293.433 152.987 294.786 152.655 296.299 152.655C297.859 152.655 299.223 152.987 300.393 153.652C301.562 154.317 302.468 155.223 303.11 156.37C303.752 157.516 304.073 158.8 304.073 160.222C304.073 161.644 303.752 162.94 303.11 164.109C302.468 165.256 301.551 166.161 300.358 166.826C299.189 167.491 297.824 167.824 296.265 167.824C294.751 167.824 293.399 167.514 292.206 166.895C291.037 166.253 290.108 165.37 289.42 164.247C288.755 163.1 288.422 161.759 288.422 160.222ZM291.621 160.257C291.621 161.174 291.828 162.011 292.24 162.768C292.653 163.501 293.204 164.086 293.892 164.522C294.602 164.958 295.382 165.175 296.231 165.175C297.125 165.175 297.916 164.958 298.604 164.522C299.315 164.086 299.865 163.501 300.255 162.768C300.645 162.011 300.84 161.174 300.84 160.257C300.84 159.339 300.645 158.514 300.255 157.78C299.865 157.023 299.315 156.427 298.604 155.991C297.916 155.533 297.125 155.303 296.231 155.303C295.359 155.303 294.568 155.533 293.857 155.991C293.169 156.45 292.619 157.058 292.206 157.814C291.816 158.548 291.621 159.362 291.621 160.257ZM308.405 140.856H311.603V167.48H308.405V140.856ZM315.9 160.222C315.9 158.8 316.232 157.516 316.897 156.37C317.585 155.223 318.526 154.317 319.718 153.652C320.91 152.987 322.263 152.655 323.777 152.655C325.336 152.655 326.701 152.987 327.87 153.652C329.04 154.317 329.946 155.223 330.588 156.37C331.23 157.516 331.551 158.8 331.551 160.222C331.551 161.644 331.23 162.94 330.588 164.109C329.946 165.256 329.028 166.161 327.836 166.826C326.666 167.491 325.302 167.824 323.743 167.824C322.229 167.824 320.876 167.514 319.684 166.895C318.514 166.253 317.585 165.37 316.897 164.247C316.232 163.1 315.9 161.759 315.9 160.222ZM319.099 160.257C319.099 161.174 319.305 162.011 319.718 162.768C320.131 163.501 320.681 164.086 321.369 164.522C322.08 164.958 322.86 165.175 323.708 165.175C324.602 165.175 325.394 164.958 326.082 164.522C326.792 164.086 327.343 163.501 327.733 162.768C328.122 162.011 328.317 161.174 328.317 160.257C328.317 159.339 328.122 158.514 327.733 157.78C327.343 157.023 326.792 156.427 326.082 155.991C325.394 155.533 324.602 155.303 323.708 155.303C322.837 155.303 322.046 155.533 321.335 155.991C320.647 156.45 320.096 157.058 319.684 157.814C319.294 158.548 319.099 159.362 319.099 160.257ZM342.727 174.531C341.672 174.531 340.744 174.405 339.941 174.153C339.138 173.924 338.405 173.591 337.74 173.156C337.097 172.72 336.478 172.227 335.882 171.676L337.74 169.509C338.496 170.22 339.264 170.771 340.044 171.16C340.824 171.55 341.695 171.745 342.658 171.745C343.736 171.745 344.642 171.562 345.376 171.195C346.132 170.851 346.706 170.358 347.096 169.716C347.485 169.097 347.68 168.374 347.68 167.549L347.715 163.696L347.99 164.315C347.577 165.301 346.832 166.138 345.754 166.826C344.676 167.491 343.369 167.824 341.833 167.824C340.526 167.824 339.322 167.491 338.221 166.826C337.143 166.161 336.272 165.267 335.607 164.143C334.965 162.997 334.644 161.713 334.644 160.291C334.644 158.8 334.988 157.493 335.676 156.37C336.364 155.223 337.269 154.317 338.393 153.652C339.517 152.987 340.744 152.655 342.074 152.655C343.335 152.655 344.481 152.918 345.513 153.446C346.568 153.95 347.336 154.604 347.818 155.407L347.646 155.991L347.99 153.239H350.914V167.583C350.914 168.867 350.581 170.037 349.916 171.092C349.251 172.147 348.311 172.984 347.096 173.603C345.88 174.222 344.424 174.531 342.727 174.531ZM337.843 160.222C337.843 161.139 338.061 161.976 338.496 162.733C338.932 163.49 339.517 164.086 340.251 164.522C341.007 164.958 341.844 165.175 342.762 165.175C343.61 165.175 344.367 165.026 345.032 164.728C345.72 164.407 346.293 163.983 346.752 163.455C347.21 162.905 347.531 162.275 347.715 161.564V158.743C347.508 158.055 347.164 157.459 346.683 156.954C346.201 156.427 345.628 156.026 344.963 155.75C344.298 155.452 343.564 155.303 342.762 155.303C341.844 155.303 341.007 155.51 340.251 155.922C339.517 156.335 338.932 156.92 338.496 157.677C338.061 158.411 337.843 159.259 337.843 160.222ZM357.644 174.325L367.034 153.239H369.992L360.808 174.325H357.644ZM361.152 167.583L354.307 153.239H357.919L363.663 165.966L361.152 167.583ZM371.167 165.003C371.167 164.292 371.419 163.696 371.924 163.215C372.451 162.733 373.024 162.492 373.643 162.492C374.217 162.492 374.756 162.733 375.26 163.215C375.787 163.696 376.051 164.292 376.051 165.003C376.051 165.76 375.787 166.368 375.26 166.826C374.756 167.262 374.217 167.48 373.643 167.48C373.024 167.48 372.451 167.262 371.924 166.826C371.419 166.368 371.167 165.76 371.167 165.003ZM403.888 147.048C403.04 146.612 402.111 146.234 401.102 145.913C400.093 145.592 399.107 145.431 398.144 145.431C396.814 145.431 395.748 145.741 394.945 146.36C394.165 146.979 393.776 147.805 393.776 148.837C393.776 149.616 394.028 150.281 394.532 150.832C395.037 151.359 395.702 151.818 396.527 152.208C397.353 152.597 398.213 152.964 399.107 153.308C399.887 153.606 400.655 153.939 401.412 154.306C402.168 154.673 402.845 155.131 403.441 155.682C404.06 156.232 404.542 156.909 404.886 157.711C405.253 158.514 405.436 159.511 405.436 160.704C405.436 162.011 405.104 163.203 404.439 164.281C403.797 165.359 402.868 166.207 401.653 166.826C400.437 167.446 398.992 167.755 397.318 167.755C396.218 167.755 395.163 167.629 394.154 167.377C393.168 167.125 392.251 166.803 391.402 166.414C390.554 166.001 389.797 165.577 389.132 165.141L390.611 162.527C391.161 162.917 391.792 163.295 392.503 163.662C393.214 164.006 393.959 164.292 394.739 164.522C395.518 164.728 396.275 164.831 397.009 164.831C397.789 164.831 398.557 164.694 399.313 164.419C400.093 164.121 400.735 163.673 401.24 163.077C401.744 162.481 401.996 161.69 401.996 160.704C401.996 159.855 401.767 159.156 401.309 158.605C400.873 158.032 400.288 157.551 399.554 157.161C398.82 156.748 398.041 156.381 397.215 156.06C396.436 155.762 395.644 155.441 394.842 155.097C394.039 154.73 393.294 154.294 392.606 153.79C391.918 153.262 391.368 152.62 390.955 151.864C390.542 151.107 390.336 150.19 390.336 149.112C390.336 147.805 390.645 146.67 391.265 145.706C391.907 144.72 392.778 143.952 393.879 143.402C394.979 142.829 396.241 142.519 397.662 142.473C399.268 142.473 400.678 142.668 401.893 143.058C403.132 143.448 404.221 143.929 405.161 144.503L403.888 147.048ZM416.857 167.824C415.229 167.824 413.83 167.503 412.661 166.861C411.491 166.196 410.585 165.301 409.943 164.178C409.324 163.031 409.015 161.724 409.015 160.257C409.015 158.858 409.37 157.585 410.081 156.438C410.792 155.292 411.743 154.375 412.936 153.687C414.128 152.999 415.458 152.655 416.926 152.655C418.806 152.655 420.366 153.205 421.604 154.306C422.842 155.407 423.679 156.92 424.115 158.846L412.386 162.974L411.629 161.082L421.26 157.574L420.572 158.021C420.297 157.264 419.838 156.61 419.196 156.06C418.554 155.487 417.717 155.2 416.685 155.2C415.814 155.2 415.034 155.418 414.346 155.854C413.658 156.266 413.119 156.84 412.73 157.574C412.34 158.307 412.145 159.144 412.145 160.085C412.145 161.071 412.351 161.942 412.764 162.699C413.177 163.433 413.739 164.017 414.449 164.453C415.183 164.866 416.009 165.072 416.926 165.072C417.545 165.072 418.141 164.958 418.715 164.728C419.311 164.499 419.861 164.201 420.366 163.834L421.845 166.207C421.134 166.689 420.331 167.079 419.437 167.377C418.566 167.675 417.706 167.824 416.857 167.824ZM430.978 153.239L431.288 157.367L431.116 156.817C431.483 155.945 432.01 155.212 432.698 154.615C433.409 153.996 434.143 153.526 434.9 153.205C435.679 152.861 436.356 152.689 436.929 152.689L436.757 155.854C435.679 155.785 434.728 155.991 433.902 156.473C433.1 156.954 432.457 157.596 431.976 158.399C431.517 159.202 431.288 160.062 431.288 160.979V167.48H428.123V153.239H430.978ZM446.835 167.893L438.923 153.239H442.707L448.073 164.556L446.112 164.487L451.031 153.239H454.609L447.007 167.893H446.835ZM458.053 153.239H461.252V167.48H458.053V153.239ZM457.812 148.08C457.812 147.575 458.007 147.151 458.397 146.807C458.81 146.463 459.257 146.291 459.739 146.291C460.22 146.291 460.644 146.463 461.011 146.807C461.401 147.151 461.596 147.575 461.596 148.08C461.596 148.607 461.401 149.043 461.011 149.387C460.644 149.708 460.22 149.869 459.739 149.869C459.257 149.869 458.81 149.697 458.397 149.353C458.007 149.009 457.812 148.584 457.812 148.08ZM478.344 166.173C477.702 166.677 476.934 167.079 476.04 167.377C475.145 167.675 474.251 167.824 473.357 167.824C471.797 167.824 470.433 167.514 469.263 166.895C468.094 166.276 467.177 165.416 466.512 164.315C465.87 163.192 465.549 161.873 465.549 160.36C465.549 158.846 465.892 157.528 466.58 156.404C467.291 155.28 468.209 154.42 469.332 153.824C470.479 153.205 471.706 152.896 473.013 152.896C474.159 152.896 475.18 153.056 476.074 153.377C476.991 153.698 477.771 154.134 478.413 154.684L476.831 156.748C476.418 156.427 475.914 156.14 475.317 155.888C474.721 155.636 474.045 155.51 473.288 155.51C472.462 155.51 471.694 155.728 470.983 156.163C470.295 156.576 469.745 157.149 469.332 157.883C468.942 158.617 468.747 159.442 468.747 160.36C468.747 161.231 468.954 162.045 469.367 162.802C469.779 163.536 470.353 164.121 471.086 164.556C471.82 164.969 472.657 165.175 473.598 165.175C474.217 165.175 474.778 165.084 475.283 164.9C475.81 164.717 476.28 164.464 476.693 164.143L478.344 166.173ZM489.078 167.824C487.45 167.824 486.051 167.503 484.882 166.861C483.712 166.196 482.806 165.301 482.164 164.178C481.545 163.031 481.236 161.724 481.236 160.257C481.236 158.858 481.591 157.585 482.302 156.438C483.013 155.292 483.964 154.375 485.157 153.687C486.349 152.999 487.679 152.655 489.147 152.655C491.027 152.655 492.587 153.205 493.825 154.306C495.063 155.407 495.9 156.92 496.336 158.846L484.607 162.974L483.85 161.082L493.481 157.574L492.793 158.021C492.518 157.264 492.059 156.61 491.417 156.06C490.775 155.487 489.938 155.2 488.906 155.2C488.035 155.2 487.255 155.418 486.567 155.854C485.879 156.266 485.34 156.84 484.951 157.574C484.561 158.307 484.366 159.144 484.366 160.085C484.366 161.071 484.572 161.942 484.985 162.699C485.398 163.433 485.959 164.017 486.67 164.453C487.404 164.866 488.23 165.072 489.147 165.072C489.766 165.072 490.362 164.958 490.936 164.728C491.532 164.499 492.082 164.201 492.587 163.834L494.066 166.207C493.355 166.689 492.552 167.079 491.658 167.377C490.787 167.675 489.927 167.824 489.078 167.824ZM504.335 167.755C503.326 167.755 502.339 167.583 501.376 167.239C500.436 166.872 499.656 166.333 499.037 165.623L500.379 163.765C500.975 164.338 501.583 164.774 502.202 165.072C502.844 165.347 503.475 165.485 504.094 165.485C504.552 165.485 504.977 165.428 505.366 165.313C505.756 165.198 506.066 165.015 506.295 164.763C506.547 164.487 506.674 164.121 506.674 163.662C506.674 163.157 506.502 162.756 506.158 162.458C505.837 162.16 505.412 161.919 504.885 161.736C504.38 161.552 503.841 161.38 503.268 161.22C502.099 160.83 501.204 160.291 500.585 159.603C499.966 158.915 499.656 158.078 499.656 157.092C499.656 156.335 499.84 155.636 500.207 154.994C500.597 154.329 501.158 153.79 501.892 153.377C502.649 152.964 503.578 152.758 504.678 152.758C505.665 152.758 506.547 152.884 507.327 153.136C508.107 153.366 508.841 153.755 509.529 154.306L508.256 156.301C507.843 155.865 507.35 155.544 506.777 155.338C506.203 155.131 505.687 155.017 505.229 154.994C504.839 154.971 504.461 155.028 504.094 155.166C503.75 155.303 503.463 155.498 503.234 155.75C503.004 156.003 502.89 156.301 502.89 156.645C502.89 157.126 503.05 157.516 503.371 157.814C503.692 158.112 504.105 158.353 504.61 158.537C505.137 158.697 505.653 158.869 506.158 159.053C506.868 159.259 507.499 159.534 508.049 159.878C508.6 160.222 509.035 160.646 509.357 161.151C509.7 161.655 509.872 162.286 509.872 163.043C509.872 163.891 509.666 164.682 509.253 165.416C508.863 166.127 508.256 166.7 507.43 167.136C506.628 167.549 505.596 167.755 504.335 167.755ZM512.082 165.003C512.082 164.292 512.334 163.696 512.838 163.215C513.366 162.733 513.939 162.492 514.558 162.492C515.132 162.492 515.67 162.733 516.175 163.215C516.702 163.696 516.966 164.292 516.966 165.003C516.966 165.76 516.702 166.368 516.175 166.826C515.67 167.262 515.132 167.48 514.558 167.48C513.939 167.48 513.366 167.262 512.838 166.826C512.334 166.368 512.082 165.76 512.082 165.003ZM550.204 165.623C549.791 165.898 549.229 166.207 548.518 166.551C547.807 166.895 546.97 167.182 546.007 167.411C545.067 167.641 544.035 167.755 542.911 167.755C540.985 167.732 539.242 167.388 537.683 166.723C536.147 166.058 534.839 165.152 533.762 164.006C532.684 162.859 531.847 161.541 531.251 160.05C530.677 158.537 530.391 156.931 530.391 155.235C530.391 153.377 530.689 151.669 531.285 150.109C531.904 148.527 532.764 147.163 533.865 146.016C534.966 144.847 536.261 143.941 537.752 143.299C539.265 142.657 540.916 142.336 542.705 142.336C544.196 142.336 545.549 142.542 546.764 142.955C547.979 143.345 549.023 143.815 549.894 144.365L548.553 147.461C547.865 147.002 547.028 146.566 546.042 146.154C545.078 145.741 544.001 145.534 542.808 145.534C541.593 145.534 540.446 145.775 539.368 146.257C538.291 146.738 537.339 147.415 536.513 148.286C535.688 149.158 535.034 150.178 534.553 151.348C534.094 152.494 533.865 153.733 533.865 155.063C533.865 156.415 534.071 157.677 534.484 158.846C534.92 159.993 535.527 160.99 536.307 161.839C537.11 162.687 538.073 163.352 539.196 163.834C540.32 164.315 541.581 164.556 542.98 164.556C544.241 164.556 545.365 164.361 546.351 163.971C547.337 163.582 548.151 163.146 548.793 162.664L550.204 165.623ZM553.793 160.222C553.793 158.8 554.125 157.516 554.79 156.37C555.478 155.223 556.418 154.317 557.611 153.652C558.803 152.987 560.156 152.655 561.67 152.655C563.229 152.655 564.593 152.987 565.763 153.652C566.932 154.317 567.838 155.223 568.48 156.37C569.122 157.516 569.443 158.8 569.443 160.222C569.443 161.644 569.122 162.94 568.48 164.109C567.838 165.256 566.921 166.161 565.728 166.826C564.559 167.491 563.194 167.824 561.635 167.824C560.122 167.824 558.769 167.514 557.576 166.895C556.407 166.253 555.478 165.37 554.79 164.247C554.125 163.1 553.793 161.759 553.793 160.222ZM556.991 160.257C556.991 161.174 557.198 162.011 557.611 162.768C558.023 163.501 558.574 164.086 559.262 164.522C559.973 164.958 560.752 165.175 561.601 165.175C562.495 165.175 563.286 164.958 563.974 164.522C564.685 164.086 565.235 163.501 565.625 162.768C566.015 162.011 566.21 161.174 566.21 160.257C566.21 159.339 566.015 158.514 565.625 157.78C565.235 157.023 564.685 156.427 563.974 155.991C563.286 155.533 562.495 155.303 561.601 155.303C560.729 155.303 559.938 155.533 559.227 155.991C558.539 156.45 557.989 157.058 557.576 157.814C557.186 158.548 556.991 159.362 556.991 160.257ZM576.63 153.239L576.905 156.714L576.767 156.163C577.226 155.108 577.971 154.271 579.003 153.652C580.035 153.01 581.227 152.689 582.58 152.689C583.933 152.689 585.034 153.09 585.883 153.893C586.754 154.673 587.201 155.693 587.224 156.954V167.48H583.991V158.09C583.968 157.31 583.738 156.679 583.303 156.198C582.89 155.693 582.236 155.441 581.342 155.441C580.517 155.441 579.771 155.67 579.106 156.129C578.441 156.587 577.914 157.218 577.524 158.021C577.157 158.823 576.974 159.752 576.974 160.807V167.48H573.775V153.239H576.63ZM596.777 167.755C595.768 167.755 594.782 167.583 593.819 167.239C592.879 166.872 592.099 166.333 591.48 165.623L592.822 163.765C593.418 164.338 594.026 164.774 594.645 165.072C595.287 165.347 595.917 165.485 596.537 165.485C596.995 165.485 597.419 165.428 597.809 165.313C598.199 165.198 598.509 165.015 598.738 164.763C598.99 164.487 599.116 164.121 599.116 163.662C599.116 163.157 598.944 162.756 598.6 162.458C598.279 162.16 597.855 161.919 597.328 161.736C596.823 161.552 596.284 161.38 595.711 161.22C594.542 160.83 593.647 160.291 593.028 159.603C592.409 158.915 592.099 158.078 592.099 157.092C592.099 156.335 592.283 155.636 592.65 154.994C593.04 154.329 593.601 153.79 594.335 153.377C595.092 152.964 596.021 152.758 597.121 152.758C598.107 152.758 598.99 152.884 599.77 153.136C600.55 153.366 601.283 153.755 601.971 154.306L600.699 156.301C600.286 155.865 599.793 155.544 599.22 155.338C598.646 155.131 598.13 155.017 597.672 154.994C597.282 154.971 596.903 155.028 596.537 155.166C596.193 155.303 595.906 155.498 595.677 155.75C595.447 156.003 595.333 156.301 595.333 156.645C595.333 157.126 595.493 157.516 595.814 157.814C596.135 158.112 596.548 158.353 597.053 158.537C597.58 158.697 598.096 158.869 598.6 159.053C599.311 159.259 599.942 159.534 600.492 159.878C601.043 160.222 601.478 160.646 601.799 161.151C602.143 161.655 602.315 162.286 602.315 163.043C602.315 163.891 602.109 164.682 601.696 165.416C601.306 166.127 600.699 166.7 599.873 167.136C599.071 167.549 598.039 167.755 596.777 167.755ZM611.301 168.03C610.017 168.03 608.95 167.641 608.102 166.861C607.276 166.058 606.841 165.026 606.795 163.765V153.239H609.994V162.63C610.04 163.41 610.257 164.04 610.647 164.522C611.06 165.003 611.702 165.256 612.574 165.279C613.376 165.279 614.087 165.049 614.706 164.591C615.348 164.109 615.864 163.467 616.254 162.664C616.644 161.839 616.839 160.91 616.839 159.878V153.239H620.038V167.48H617.114L616.839 163.971L617.011 164.591C616.736 165.256 616.311 165.852 615.738 166.379C615.188 166.884 614.534 167.285 613.777 167.583C613.021 167.881 612.195 168.03 611.301 168.03ZM625.572 140.856H628.771V167.48H625.572V140.856ZM635.682 146.979H638.881V153.308H642.802V155.819H638.881V167.48H635.682V155.819H633.068V153.308H635.682V146.979ZM646.668 153.239H649.866V167.48H646.668V153.239ZM646.427 148.08C646.427 147.575 646.622 147.151 647.011 146.807C647.424 146.463 647.871 146.291 648.353 146.291C648.835 146.291 649.259 146.463 649.626 146.807C650.016 147.151 650.21 147.575 650.21 148.08C650.21 148.607 650.016 149.043 649.626 149.387C649.259 149.708 648.835 149.869 648.353 149.869C647.871 149.869 647.424 149.697 647.011 149.353C646.622 149.009 646.427 148.584 646.427 148.08ZM658.256 153.239L658.531 156.714L658.394 156.163C658.852 155.108 659.598 154.271 660.63 153.652C661.662 153.01 662.854 152.689 664.207 152.689C665.56 152.689 666.661 153.09 667.509 153.893C668.38 154.673 668.828 155.693 668.851 156.954V167.48H665.617V158.09C665.594 157.31 665.365 156.679 664.929 156.198C664.517 155.693 663.863 155.441 662.969 155.441C662.143 155.441 661.398 155.67 660.733 156.129C660.068 156.587 659.54 157.218 659.151 158.021C658.784 158.823 658.6 159.752 658.6 160.807V167.48H655.401V153.239H658.256ZM681.259 174.531C680.204 174.531 679.275 174.405 678.473 174.153C677.67 173.924 676.936 173.591 676.271 173.156C675.629 172.72 675.01 172.227 674.414 171.676L676.271 169.509C677.028 170.22 677.796 170.771 678.576 171.16C679.356 171.55 680.227 171.745 681.19 171.745C682.268 171.745 683.174 171.562 683.907 171.195C684.664 170.851 685.237 170.358 685.627 169.716C686.017 169.097 686.212 168.374 686.212 167.549L686.246 163.696L686.522 164.315C686.109 165.301 685.364 166.138 684.286 166.826C683.208 167.491 681.901 167.824 680.365 167.824C679.057 167.824 677.854 167.491 676.753 166.826C675.675 166.161 674.804 165.267 674.139 164.143C673.497 162.997 673.175 161.713 673.175 160.291C673.175 158.8 673.519 157.493 674.207 156.37C674.895 155.223 675.801 154.317 676.925 153.652C678.048 152.987 679.275 152.655 680.605 152.655C681.867 152.655 683.013 152.918 684.045 153.446C685.1 153.95 685.868 154.604 686.35 155.407L686.178 155.991L686.522 153.239H689.445V167.583C689.445 168.867 689.113 170.037 688.448 171.092C687.783 172.147 686.843 172.984 685.627 173.603C684.412 174.222 682.956 174.531 681.259 174.531ZM676.374 160.222C676.374 161.139 676.592 161.976 677.028 162.733C677.464 163.49 678.048 164.086 678.782 164.522C679.539 164.958 680.376 165.175 681.293 165.175C682.142 165.175 682.898 165.026 683.563 164.728C684.251 164.407 684.825 163.983 685.283 163.455C685.742 162.905 686.063 162.275 686.246 161.564V158.743C686.04 158.055 685.696 157.459 685.215 156.954C684.733 156.427 684.16 156.026 683.495 155.75C682.83 155.452 682.096 155.303 681.293 155.303C680.376 155.303 679.539 155.51 678.782 155.922C678.048 156.335 677.464 156.92 677.028 157.677C676.592 158.411 676.374 159.259 676.374 160.222Z" fill="#484848"/>
</g>
<defs>
<linearGradient id="paint0_linear_892_1112" x1="138.497" y1="51.262" x2="112.403" y2="171.305" gradientUnits="userSpaceOnUse">
<stop stop-color="#003E64"/>
<stop offset="0.28" stop-color="#0D5787"/>
<stop offset="0.57" stop-color="#196DA6"/>
<stop offset="0.82" stop-color="#207BB9"/>
<stop offset="1" stop-color="#2380C0"/>
</linearGradient>
<radialGradient id="paint1_radial_892_1112" cx="0" cy="0" r="1" gradientUnits="userSpaceOnUse" gradientTransform="translate(155.091 12.7789) rotate(137.789) scale(283.308 283.388)">
<stop stop-color="#D0E5B3"/>
<stop offset="0.34" stop-color="#61C5D2"/>
<stop offset="0.57" stop-color="#1CB2E7"/>
<stop offset="0.97" stop-color="#005B86"/>
<stop offset="1" stop-color="#005B86"/>
</radialGradient>
<linearGradient id="paint2_linear_892_1112" x1="101.582" y1="91.0411" x2="71.3365" y2="152.28" gradientUnits="userSpaceOnUse">
<stop stop-color="#003E64"/>
<stop offset="0.28" stop-color="#0D5787"/>
<stop offset="0.57" stop-color="#196DA6"/>
<stop offset="0.82" stop-color="#207BB9"/>
<stop offset="1" stop-color="#2380C0"/>
</linearGradient>
<radialGradient id="paint3_radial_892_1112" cx="0" cy="0" r="1" gradientUnits="userSpaceOnUse" gradientTransform="translate(87.903 137.507) rotate(110.068) scale(85.0763 84.8924)">
<stop stop-color="#2483C5"/>
<stop offset="0.36" stop-color="#2483C5"/>
<stop offset="1" stop-color="#000015"/>
</radialGradient>
<radialGradient id="paint4_radial_892_1112" cx="0" cy="0" r="1" gradientUnits="userSpaceOnUse" gradientTransform="translate(155.712 12.2556) rotate(137.789) scale(283.309 283.388)">
<stop stop-color="#D0E5B3"/>
<stop offset="0.17" stop-color="#61C5D2"/>
<stop offset="0.29" stop-color="#1CB2E7"/>
<stop offset="0.97" stop-color="#0087C6"/>
<stop offset="1" stop-color="#0087C6"/>
</radialGradient>
<radialGradient id="paint5_radial_892_1112" cx="0" cy="0" r="1" gradientUnits="userSpaceOnUse" gradientTransform="translate(110.889 162.426) rotate(-70.4812) scale(102.442 102.217)">
<stop stop-color="#2483C5"/>
<stop offset="0.36" stop-color="#2483C5"/>
<stop offset="1" stop-color="#000015"/>
</radialGradient>
<radialGradient id="paint6_radial_892_1112" cx="0" cy="0" r="1" gradientUnits="userSpaceOnUse" gradientTransform="translate(155.053 12.796) rotate(137.799) scale(283.308 283.388)">
<stop stop-color="#D0E5B3"/>
<stop offset="0.17" stop-color="#61C5D2"/>
<stop offset="0.29" stop-color="#1CB2E7"/>
<stop offset="0.97" stop-color="#0087C6"/>
<stop offset="1" stop-color="#0087C6"/>
</radialGradient>
<clipPath id="clip0_892_1112">
<rect width="704" height="226" fill="white"/>
</clipPath>
</defs>
</svg>
